<?xml version="1.0" encoding="UTF-8"?>
<!-- Generator: visioncortex VTracer 0.6.3 -->
<svg version="1.1" xmlns="http://www.w3.org/2000/svg" width="1280" height="1280">
<path d="M0 0 C422.4 0 844.8 0 1280 0 C1280 422.4 1280 844.8 1280 1280 C857.6 1280 435.2 1280 0 1280 C0 857.6 0 435.2 0 0 Z " fill="#FDFDFD" transform="translate(0,0)"/>
<path d="M0 0 C1.66 0 1.66 0 3.36 0 C4.64 -0 5.92 -0.01 7.23 -0.01 C8.67 -0.01 10.1 -0 11.54 0 C13.06 -0 14.58 -0 16.09 -0.01 C20.3 -0.01 24.51 -0.01 28.71 -0 C33.27 0.01 37.84 -0 42.4 -0 C50.41 -0.01 58.42 -0.01 66.42 -0 C78.33 0.01 90.24 0.01 102.15 0 C122.18 -0 142.2 -0 162.23 0.01 C182.07 0.02 201.91 0.02 221.75 0.02 C223.6 0.02 223.6 0.02 225.49 0.02 C230.49 0.02 235.49 0.02 240.49 0.02 C286.77 0.02 333.06 0.03 379.34 0.04 C421.77 0.06 464.2 0.07 506.63 0.06 C507.97 0.06 509.31 0.06 510.65 0.06 C513.33 0.06 516.01 0.06 518.69 0.06 C525.36 0.06 532.03 0.06 538.7 0.06 C540.02 0.06 541.33 0.06 542.69 0.06 C577.54 0.06 612.38 0.07 647.23 0.07 C649.09 0.07 649.09 0.07 650.98 0.08 C655.97 0.08 660.95 0.08 665.93 0.08 C683.3 0.08 700.66 0.08 718.03 0.08 C740.4 0.08 762.77 0.09 785.14 0.1 C796.99 0.1 808.83 0.1 820.68 0.1 C828.57 0.1 836.47 0.11 844.36 0.11 C848.87 0.11 853.38 0.12 857.89 0.11 C861.98 0.11 866.08 0.11 870.17 0.12 C871.65 0.12 873.13 0.12 874.61 0.12 C876.6 0.12 878.6 0.12 880.59 0.12 C881.7 0.12 882.81 0.12 883.95 0.12 C886.41 0.25 886.41 0.25 887.41 1.25 C887.51 4.4 887.54 7.52 887.53 10.67 C887.53 11.67 887.53 12.67 887.54 13.71 C887.54 17.09 887.53 20.47 887.53 23.85 C887.53 26.27 887.53 28.68 887.53 31.1 C887.53 36.31 887.52 41.52 887.52 46.73 C887.51 54.26 887.51 61.8 887.51 69.33 C887.5 81.55 887.5 93.78 887.49 106 C887.48 117.88 887.47 129.75 887.47 141.63 C887.47 142.36 887.47 143.09 887.47 143.85 C887.47 147.52 887.46 151.19 887.46 154.86 C887.45 185.32 887.43 215.79 887.41 246.25 C802.48 246.27 717.55 246.28 632.62 246.29 C631.36 246.29 630.11 246.29 628.81 246.29 C601.52 246.3 574.23 246.3 546.94 246.3 C534.23 246.3 521.52 246.3 508.81 246.3 C506.79 246.3 504.77 246.3 502.76 246.31 C471.68 246.31 440.6 246.31 409.51 246.32 C408.51 246.32 408.51 246.32 407.49 246.32 C396.71 246.32 385.93 246.32 375.15 246.33 C330.09 246.34 285.04 246.34 239.98 246.34 C233.72 246.34 227.46 246.34 221.2 246.34 C219.97 246.34 218.74 246.34 217.47 246.34 C197.59 246.35 177.71 246.35 157.83 246.36 C137.87 246.36 117.91 246.36 97.95 246.36 C86.07 246.36 74.2 246.36 62.32 246.37 C54.41 246.37 46.49 246.37 38.57 246.37 C34.05 246.37 29.53 246.37 25.01 246.37 C20.91 246.38 16.8 246.38 12.7 246.37 C11.21 246.37 9.73 246.37 8.25 246.38 C6.25 246.38 4.25 246.38 2.25 246.37 C1.14 246.37 0.03 246.37 -1.12 246.37 C-3.59 246.25 -3.59 246.25 -4.59 245.25 C-4.69 242.13 -4.73 239.04 -4.72 235.92 C-4.72 234.93 -4.73 233.93 -4.73 232.91 C-4.73 229.56 -4.73 226.21 -4.73 222.86 C-4.74 220.47 -4.74 218.08 -4.74 215.69 C-4.75 209.85 -4.75 204.02 -4.75 198.18 C-4.76 193.44 -4.76 188.69 -4.76 183.95 C-4.77 170.52 -4.77 157.09 -4.77 143.66 C-4.77 142.93 -4.77 142.21 -4.77 141.46 C-4.77 140.37 -4.77 140.37 -4.77 139.26 C-4.77 127.5 -4.78 115.74 -4.8 103.97 C-4.81 91.9 -4.82 79.84 -4.82 67.77 C-4.82 60.99 -4.82 54.21 -4.83 47.43 C-4.84 41.06 -4.84 34.69 -4.83 28.31 C-4.83 25.97 -4.83 23.62 -4.84 21.28 C-4.85 18.09 -4.84 14.9 -4.83 11.71 C-4.84 10.77 -4.85 9.83 -4.85 8.86 C-4.85 8.01 -4.84 7.16 -4.84 6.29 C-4.84 5.55 -4.84 4.81 -4.84 4.06 C-4.4 0.88 -3.03 0.29 0 0 Z " fill="#FDFDFD" transform="translate(197.58754489198327,515.7501850016415)"/>
<path d="M0 0 C1.27 0 2.54 0 3.85 0 C4.91 -0 4.91 -0 5.99 -0 C8.39 -0.01 10.78 -0 13.18 0.01 C14.91 0.01 16.63 0.01 18.36 0 C23.12 -0 27.88 0.01 32.64 0.02 C37.77 0.02 42.9 0.02 48.02 0.02 C56.91 0.02 65.8 0.03 74.69 0.04 C87.55 0.05 100.4 0.06 113.26 0.06 C134.11 0.07 154.96 0.08 175.81 0.1 C196.07 0.12 216.33 0.13 236.59 0.14 C237.84 0.14 239.09 0.14 240.37 0.14 C246.64 0.14 252.9 0.15 259.16 0.15 C311.13 0.17 363.1 0.2 415.07 0.25 C416.62 3.34 416.2 6.61 416.19 10.01 C416.19 11.22 416.19 11.22 416.19 12.46 C416.2 15.19 416.19 17.92 416.18 20.65 C416.18 22.6 416.18 24.55 416.19 26.5 C416.19 31.81 416.18 37.12 416.17 42.43 C416.17 47.98 416.17 53.52 416.16 59.07 C416.16 69.57 416.15 80.07 416.14 90.58 C416.13 102.53 416.13 114.49 416.12 126.45 C416.11 151.05 416.09 175.65 416.07 200.25 C362.58 200.27 309.09 200.29 255.61 200.3 C249.3 200.3 242.99 200.3 236.68 200.3 C235.43 200.3 234.17 200.3 232.88 200.3 C212.52 200.31 192.15 200.32 171.79 200.33 C150.91 200.33 130.04 200.34 109.16 200.34 C96.27 200.34 83.37 200.35 70.48 200.36 C61.65 200.36 52.82 200.36 43.99 200.36 C38.89 200.36 33.79 200.36 28.69 200.37 C24.03 200.37 19.36 200.37 14.7 200.37 C13.01 200.37 11.31 200.37 9.62 200.37 C7.33 200.38 5.04 200.38 2.75 200.37 C0.84 200.37 0.84 200.37 -1.11 200.37 C-3.93 200.25 -3.93 200.25 -4.93 199.25 C-5.03 196.71 -5.07 194.2 -5.06 191.66 C-5.07 190.46 -5.07 190.46 -5.07 189.23 C-5.08 186.51 -5.07 183.8 -5.07 181.08 C-5.08 179.14 -5.08 177.21 -5.08 175.27 C-5.09 169.99 -5.1 164.71 -5.1 159.43 C-5.1 155.03 -5.1 150.64 -5.1 146.24 C-5.11 135.86 -5.11 125.49 -5.11 115.12 C-5.11 104.4 -5.12 93.68 -5.14 82.96 C-5.15 73.77 -5.16 64.58 -5.16 55.4 C-5.16 49.9 -5.16 44.41 -5.17 38.91 C-5.18 33.75 -5.18 28.58 -5.17 23.42 C-5.17 21.52 -5.17 19.62 -5.18 17.72 C-5.19 15.13 -5.18 12.55 -5.18 9.96 C-5.18 9.2 -5.19 8.44 -5.19 7.66 C-5.14 0.44 -5.14 0.44 0 0 Z " fill="#040404" transform="translate(221.9286252260208,538.7516030073166)"/>
<path d="M0 0 C1.66 0 1.66 0 3.36 0 C4.64 -0 5.92 -0.01 7.23 -0.01 C8.67 -0.01 10.1 -0 11.54 0 C13.06 -0 14.58 -0 16.09 -0.01 C20.3 -0.01 24.51 -0.01 28.71 -0 C33.27 0.01 37.84 -0 42.4 -0 C50.41 -0.01 58.42 -0.01 66.42 -0 C78.33 0.01 90.24 0.01 102.15 0 C122.18 -0 142.2 -0 162.23 0.01 C182.07 0.02 201.91 0.02 221.75 0.02 C223.6 0.02 223.6 0.02 225.49 0.02 C230.49 0.02 235.49 0.02 240.49 0.02 C286.77 0.02 333.06 0.03 379.34 0.04 C421.77 0.06 464.2 0.07 506.63 0.06 C507.97 0.06 509.31 0.06 510.65 0.06 C513.33 0.06 516.01 0.06 518.69 0.06 C525.36 0.06 532.03 0.06 538.7 0.06 C540.02 0.06 541.33 0.06 542.69 0.06 C577.54 0.06 612.38 0.07 647.23 0.07 C649.09 0.07 649.09 0.07 650.98 0.08 C655.97 0.08 660.95 0.08 665.93 0.08 C683.3 0.08 700.66 0.08 718.03 0.08 C740.4 0.08 762.77 0.09 785.14 0.1 C796.99 0.1 808.83 0.1 820.68 0.1 C828.57 0.1 836.47 0.11 844.36 0.11 C848.87 0.11 853.38 0.12 857.89 0.11 C861.98 0.11 866.08 0.11 870.17 0.12 C871.65 0.12 873.13 0.12 874.61 0.12 C876.6 0.12 878.6 0.12 880.59 0.12 C881.7 0.12 882.81 0.12 883.95 0.12 C886.41 0.25 886.41 0.25 887.41 1.25 C887.51 4.4 887.54 7.52 887.53 10.67 C887.53 11.67 887.53 12.67 887.54 13.71 C887.54 17.09 887.53 20.47 887.53 23.85 C887.53 26.27 887.53 28.68 887.53 31.1 C887.53 36.31 887.52 41.52 887.52 46.73 C887.51 54.26 887.51 61.8 887.51 69.33 C887.5 81.55 887.5 93.78 887.49 106 C887.48 117.88 887.47 129.75 887.47 141.63 C887.47 142.36 887.47 143.09 887.47 143.85 C887.47 147.52 887.46 151.19 887.46 154.86 C887.45 185.32 887.43 215.79 887.41 246.25 C802.48 246.27 717.55 246.28 632.62 246.29 C631.36 246.29 630.11 246.29 628.81 246.29 C601.52 246.3 574.23 246.3 546.94 246.3 C534.23 246.3 521.52 246.3 508.81 246.3 C506.79 246.3 504.77 246.3 502.76 246.31 C471.68 246.31 440.6 246.31 409.51 246.32 C408.51 246.32 408.51 246.32 407.49 246.32 C396.71 246.32 385.93 246.32 375.15 246.33 C330.09 246.34 285.04 246.34 239.98 246.34 C233.72 246.34 227.46 246.34 221.2 246.34 C219.97 246.34 218.74 246.34 217.47 246.34 C197.59 246.35 177.71 246.35 157.83 246.36 C137.87 246.36 117.91 246.36 97.95 246.36 C86.07 246.36 74.2 246.36 62.32 246.37 C54.41 246.37 46.49 246.37 38.57 246.37 C34.05 246.37 29.53 246.37 25.01 246.37 C20.91 246.38 16.8 246.38 12.7 246.37 C11.21 246.37 9.73 246.37 8.25 246.38 C6.25 246.38 4.25 246.38 2.25 246.37 C1.14 246.37 0.03 246.37 -1.12 246.37 C-3.59 246.25 -3.59 246.25 -4.59 245.25 C-4.69 242.13 -4.73 239.04 -4.72 235.92 C-4.72 234.93 -4.73 233.93 -4.73 232.91 C-4.73 229.56 -4.73 226.21 -4.73 222.86 C-4.74 220.47 -4.74 218.08 -4.74 215.69 C-4.75 209.85 -4.75 204.02 -4.75 198.18 C-4.76 193.44 -4.76 188.69 -4.76 183.95 C-4.77 170.52 -4.77 157.09 -4.77 143.66 C-4.77 142.93 -4.77 142.21 -4.77 141.46 C-4.77 140.37 -4.77 140.37 -4.77 139.26 C-4.77 127.5 -4.78 115.74 -4.8 103.97 C-4.81 91.9 -4.82 79.84 -4.82 67.77 C-4.82 60.99 -4.82 54.21 -4.83 47.43 C-4.84 41.06 -4.84 34.69 -4.83 28.31 C-4.83 25.97 -4.83 23.62 -4.84 21.28 C-4.85 18.09 -4.84 14.9 -4.83 11.71 C-4.84 10.77 -4.85 9.83 -4.85 8.86 C-4.85 8.01 -4.84 7.16 -4.84 6.29 C-4.84 5.55 -4.84 4.81 -4.84 4.06 C-4.4 0.88 -3.03 0.29 0 0 Z M1.41 10.25 C1.22 13.23 1.15 16.12 1.17 19.11 C1.17 20.5 1.17 20.5 1.17 21.92 C1.16 25.05 1.17 28.18 1.19 31.31 C1.19 33.55 1.19 35.79 1.18 38.02 C1.18 44.11 1.2 50.2 1.21 56.29 C1.22 62.65 1.22 69 1.23 75.36 C1.23 86.04 1.24 96.71 1.26 107.39 C1.28 118.38 1.29 129.38 1.3 140.37 C1.3 141.05 1.3 141.73 1.3 142.43 C1.31 145.83 1.31 149.23 1.31 152.62 C1.33 180.83 1.37 209.04 1.41 237.25 C4.13 238.61 6.24 238.37 9.28 238.37 C10.54 238.38 11.8 238.38 13.1 238.38 C14.51 238.38 15.93 238.38 17.34 238.37 C18.84 238.37 20.33 238.37 21.83 238.38 C25.97 238.38 30.12 238.38 34.26 238.37 C38.76 238.37 43.26 238.37 47.75 238.37 C55.65 238.37 63.54 238.37 71.43 238.37 C83.17 238.36 94.9 238.36 106.64 238.36 C126.38 238.36 146.12 238.36 165.86 238.36 C185.41 238.35 204.96 238.35 224.51 238.34 C225.73 238.34 226.94 238.34 228.19 238.34 C234.36 238.34 240.53 238.34 246.69 238.34 C290.41 238.34 334.12 238.33 377.83 238.33 C420.31 238.32 462.78 238.31 505.25 238.3 C507.22 238.3 507.22 238.3 509.22 238.3 C522.36 238.3 535.5 238.3 548.64 238.3 C575.41 238.3 602.18 238.3 628.95 238.29 C630.18 238.29 631.41 238.29 632.68 238.29 C714.93 238.28 797.17 238.27 879.41 238.25 C879.44 209.09 879.45 179.94 879.46 150.78 C879.46 147.34 879.47 143.9 879.47 140.47 C879.47 139.78 879.47 139.1 879.47 138.39 C879.47 127.29 879.48 116.19 879.49 105.09 C879.5 93.71 879.5 82.33 879.51 70.95 C879.51 64.56 879.51 58.16 879.52 51.77 C879.52 45.75 879.53 39.74 879.53 33.73 C879.53 31.52 879.53 29.3 879.53 27.09 C879.54 24.08 879.54 21.07 879.53 18.06 C879.54 17.18 879.54 16.29 879.54 15.37 C879.92 11.5 879.92 11.5 878.41 8.25 C876.5 8.15 874.59 8.12 872.68 8.12 C870.8 8.12 870.8 8.12 868.87 8.11 C867.46 8.12 866.04 8.12 864.63 8.12 C863.14 8.12 861.64 8.12 860.15 8.12 C856.01 8.11 851.87 8.11 847.73 8.12 C843.24 8.12 838.75 8.11 834.26 8.11 C826.38 8.1 818.5 8.1 810.62 8.1 C798.9 8.11 787.18 8.1 775.46 8.1 C753.31 8.09 731.17 8.08 709.02 8.08 C691.93 8.08 674.83 8.08 657.74 8.08 C652.82 8.08 647.91 8.08 643 8.07 C641.77 8.07 640.55 8.07 639.29 8.07 C604.92 8.07 570.55 8.06 536.18 8.06 C534.88 8.06 533.58 8.06 532.25 8.06 C525.67 8.06 519.1 8.06 512.52 8.06 C511.22 8.06 509.91 8.06 508.57 8.06 C505.93 8.06 503.29 8.06 500.64 8.06 C459.55 8.07 418.45 8.06 377.35 8.04 C331.22 8.03 285.09 8.02 238.96 8.02 C234.05 8.02 229.14 8.02 224.22 8.02 C223.01 8.02 221.8 8.02 220.56 8.02 C201.04 8.02 181.52 8.01 162.01 8.01 C142.41 8 122.82 8 103.22 8 C91.56 8.01 79.91 8.01 68.25 8 C60.48 7.99 52.7 7.99 44.93 8 C40.49 8 36.05 8 31.62 7.99 C27.59 7.99 23.56 7.99 19.53 8 C18.07 8 16.62 8 15.16 7.99 C13.2 7.99 11.23 7.99 9.27 8 C8.18 8 7.09 8 5.96 8 C3.25 7.99 3.25 7.99 1.41 10.25 Z " fill="#040404" transform="translate(197.58754489198327,515.7501850016415)"/>
<path d="M0 0 C1.16 0 1.16 0 2.34 0 C3.13 -0 3.93 -0.01 4.75 -0.01 C6.44 -0.02 8.14 -0.02 9.83 -0.01 C12.39 -0.01 14.95 -0.03 17.52 -0.06 C36.09 -0.13 36.09 -0.13 43.24 5.62 C47.2 10.62 48.93 14.62 48.73 20.99 C47.97 25.78 45.78 29.89 42.36 33.3 C42.86 33.83 43.35 34.37 43.86 34.91 C44.5 35.62 45.14 36.33 45.8 37.05 C46.44 37.75 47.08 38.45 47.73 39.16 C51.07 43.55 50.99 48.99 50.36 54.3 C48.93 58.72 46.89 60.93 43.11 63.62 C36.49 66.92 29.83 67.61 22.56 67.57 C21.75 67.57 20.95 67.57 20.12 67.57 C18.43 67.58 16.75 67.57 15.06 67.56 C12.47 67.55 9.89 67.56 7.3 67.58 C5.66 67.58 4.01 67.57 2.37 67.57 C1.21 67.58 1.21 67.58 0.03 67.58 C-5.41 67.53 -5.41 67.53 -7.64 65.3 C-7.89 62.68 -7.89 62.68 -7.9 59.33 C-7.9 58.07 -7.91 56.82 -7.91 55.52 C-7.91 54.15 -7.91 52.77 -7.9 51.4 C-7.9 49.99 -7.91 48.59 -7.91 47.18 C-7.91 44.24 -7.91 41.29 -7.9 38.35 C-7.89 34.57 -7.89 30.79 -7.9 27.01 C-7.91 24.11 -7.91 21.2 -7.9 18.3 C-7.9 16.91 -7.9 15.52 -7.91 14.12 C-7.91 12.17 -7.91 10.23 -7.9 8.28 C-7.89 7.17 -7.89 6.06 -7.89 4.92 C-7.39 -0.23 -4.51 0.06 0 0 Z " fill="#040404" transform="translate(915.6369781494141,602.6964569091797)"/>
<path d="M0 0 C1.11 0 1.11 0 2.23 0.01 C2.97 -0.01 3.71 -0.02 4.47 -0.04 C6.61 -0.04 6.61 -0.04 10.23 0.32 C12.32 3.45 12.51 4.39 12.65 7.99 C12.69 8.88 12.73 9.78 12.77 10.7 C12.8 11.62 12.83 12.55 12.86 13.51 C12.9 14.45 12.94 15.39 12.98 16.36 C13.07 18.68 13.15 21 13.23 23.32 C19.5 23.65 25.77 23.98 32.23 24.32 C32.21 22.76 32.19 21.19 32.16 19.58 C32.15 17.54 32.13 15.49 32.11 13.45 C32.09 12.41 32.08 11.38 32.06 10.32 C32.05 8.84 32.05 8.84 32.04 7.33 C32.02 5.96 32.02 5.96 32.01 4.57 C32.23 2.32 32.23 2.32 34.23 0.32 C37.13 0.15 39.91 0.09 42.8 0.13 C43.59 0.14 44.38 0.14 45.2 0.14 C51.09 0.18 51.09 0.18 52.23 1.32 C52.33 3.38 52.35 5.44 52.35 7.49 C52.35 8.14 52.35 8.78 52.35 9.45 C52.35 11.58 52.34 13.72 52.33 15.86 C52.33 17.34 52.33 18.81 52.33 20.29 C52.32 24.19 52.31 28.09 52.3 31.99 C52.29 35.96 52.29 39.94 52.28 43.91 C52.27 51.71 52.26 59.52 52.23 67.32 C49.28 67.35 46.32 67.37 43.36 67.38 C42.52 67.39 41.68 67.4 40.81 67.41 C40 67.41 39.2 67.42 38.37 67.42 C37.25 67.43 37.25 67.43 36.11 67.44 C34.23 67.32 34.23 67.32 32.23 66.32 C31.9 58.4 31.57 50.48 31.23 42.32 C28.47 42.26 25.71 42.2 22.86 42.13 C21.99 42.11 21.12 42.08 20.23 42.05 C18.23 42.03 16.23 42.17 14.23 42.32 C12.03 45.63 11.99 46.6 12.04 50.43 C12.05 51.41 12.05 52.39 12.06 53.41 C12.08 54.43 12.09 55.45 12.11 56.51 C12.12 57.55 12.13 58.58 12.14 59.65 C12.16 62.21 12.19 64.76 12.23 67.32 C9.28 67.35 6.32 67.37 3.36 67.38 C2.52 67.39 1.68 67.4 0.81 67.41 C0 67.41 -0.8 67.42 -1.63 67.42 C-2.38 67.43 -3.12 67.43 -3.89 67.44 C-5.77 67.32 -5.77 67.32 -7.77 66.32 C-7.81 58.01 -7.85 49.7 -7.87 41.39 C-7.88 37.53 -7.89 33.68 -7.92 29.82 C-7.94 26.1 -7.95 22.37 -7.96 18.65 C-7.96 17.23 -7.97 15.81 -7.98 14.39 C-7.99 12.4 -7.99 10.41 -7.99 8.42 C-8 7.29 -8 6.16 -8.01 4.99 C-7.53 -0.24 -4.59 0.05 0 0 Z " fill="#040404" transform="translate(770.765625,602.677734375)"/>
<path d="M0 0 C1.56 0 3.12 0.02 4.68 0.04 C5.48 0.04 6.27 0.04 7.09 0.04 C12.98 0.09 12.98 0.09 14.12 1.23 C14.23 4.36 14.28 7.47 14.3 10.59 C14.32 12.53 14.34 14.47 14.37 16.41 C14.4 19.48 14.43 22.54 14.45 25.61 C14.46 28.56 14.5 31.52 14.55 34.47 C14.54 35.39 14.54 36.3 14.54 37.25 C14.59 42.38 14.59 42.38 17.03 46.78 C20.88 49.45 23.44 49.39 28.12 49.23 C29.11 48.9 30.1 48.57 31.12 48.23 C33.46 43.24 33.43 38.36 33.46 32.96 C33.48 32.09 33.49 31.22 33.51 30.31 C33.57 26.59 33.61 22.87 33.65 19.14 C33.69 16.42 33.73 13.69 33.78 10.96 C33.78 10.12 33.79 9.27 33.79 8.4 C33.9 2.46 33.9 2.46 36.12 0.23 C38.85 0.06 41.46 -0 44.18 0.04 C44.93 0.04 45.68 0.04 46.44 0.04 C51.98 0.09 51.98 0.09 53.12 1.23 C53.23 2.59 53.27 3.95 53.28 5.32 C53.29 6.18 53.3 7.05 53.31 7.95 C53.32 8.9 53.32 9.84 53.32 10.82 C53.33 11.79 53.34 12.77 53.34 13.77 C53.35 15.84 53.36 17.91 53.36 19.98 C53.37 23.12 53.4 26.26 53.43 29.4 C53.44 31.42 53.45 33.43 53.45 35.45 C53.46 36.37 53.47 37.3 53.49 38.26 C53.46 47.06 52.02 55.2 45.8 61.76 C37.31 69.19 27.77 68.76 17.12 68.23 C9.02 67.16 3.47 62.17 -1.88 56.23 C-6.4 49.43 -6.04 40.74 -6.05 32.87 C-6.05 31.56 -6.05 31.56 -6.06 30.22 C-6.06 28.39 -6.06 26.56 -6.06 24.72 C-6.07 21.91 -6.08 19.1 -6.1 16.28 C-6.11 14.5 -6.11 12.71 -6.11 10.93 C-6.12 10.09 -6.12 9.24 -6.13 8.38 C-6.1 0.36 -6.1 0.36 0 0 Z " fill="#040404" transform="translate(841.87890625,602.76953125)"/>
<path d="M0 0 C1.03 0 1.03 0 2.08 0.01 C4.15 0.01 6.21 -0.01 8.28 -0.04 C23.5 -0.05 23.5 -0.05 29.57 5.01 C30.02 5.58 30.47 6.16 30.93 6.76 C31.39 7.34 31.85 7.91 32.32 8.51 C36.85 15.21 36.17 22.51 35.55 30.32 C34.33 35.12 31.45 37.59 27.43 40.26 C23.91 42.32 23.91 42.32 21.55 42.32 C24.76 48.57 28.5 54.29 32.6 59.98 C35.55 64.12 35.55 64.12 35.55 66.32 C36.54 66.82 36.54 66.82 37.55 67.32 C36.16 67.43 34.76 67.51 33.36 67.57 C32.59 67.62 31.81 67.67 31.01 67.71 C27.43 67.14 26.12 65.91 23.55 63.32 C22 61 20.58 58.61 19.15 56.21 C14.49 47.95 14.49 47.95 6.85 43.04 C1.29 42.91 1.29 42.91 -3.45 45.32 C-3.54 46.96 -3.56 48.6 -3.55 50.23 C-3.54 51.22 -3.54 52.21 -3.54 53.23 C-3.53 54.27 -3.52 55.31 -3.51 56.38 C-3.51 57.43 -3.5 58.47 -3.5 59.55 C-3.49 62.14 -3.47 64.73 -3.45 67.32 C-10.2 67.45 -10.2 67.45 -12.45 66.32 C-12.5 58.01 -12.53 49.7 -12.55 41.39 C-12.56 37.53 -12.58 33.68 -12.6 29.82 C-12.62 26.1 -12.63 22.37 -12.64 18.65 C-12.64 17.23 -12.65 15.81 -12.66 14.39 C-12.68 12.4 -12.68 10.41 -12.68 8.42 C-12.68 7.29 -12.69 6.16 -12.69 4.99 C-12.08 -1.81 -5.27 0.03 0 0 Z " fill="#FDFDFD" transform="translate(476.44921875,602.677734375)"/>
<path d="M0 0 C1.01 0.14 2.02 0.29 3.06 0.44 C5.94 4.39 7.67 8.97 9.54 13.46 C9.87 14.24 10.19 15.02 10.53 15.82 C11.59 18.34 12.64 20.86 13.69 23.38 C14.41 25.1 15.13 26.82 15.85 28.55 C17.61 32.75 19.37 36.96 21.12 41.17 C21.97 43.23 22.83 45.28 23.69 47.34 C24.99 50.46 26.28 53.57 27.56 56.69 C27.93 57.57 28.3 58.46 28.67 59.37 C31.06 65.2 31.06 65.2 31.06 67.44 C24.44 67.69 24.44 67.69 21.06 65.44 C19.71 62.91 19.71 62.91 18.44 59.94 C18.01 58.96 17.59 57.98 17.15 56.97 C16.61 55.72 16.61 55.72 16.06 54.44 C15.73 53.78 15.4 53.12 15.06 52.44 C10.48 52.41 5.9 52.39 1.31 52.38 C-0.64 52.36 -0.64 52.36 -2.63 52.35 C-4.51 52.34 -4.51 52.34 -6.42 52.34 C-7.57 52.33 -8.73 52.33 -9.91 52.32 C-12.47 52.42 -14.54 52.55 -16.94 53.44 C-18.01 55.35 -18.01 55.35 -18.56 57.69 C-18.8 58.5 -19.03 59.3 -19.28 60.14 C-19.5 60.9 -19.71 61.66 -19.94 62.44 C-20.59 64.11 -21.24 65.78 -21.94 67.44 C-24.58 67.44 -27.22 67.44 -29.94 67.44 C-30.94 65.44 -30.94 65.44 -30.39 63.63 C-30.06 62.88 -29.74 62.13 -29.41 61.36 C-29.04 60.49 -28.67 59.61 -28.28 58.71 C-27.86 57.73 -27.44 56.75 -27 55.75 C-26.08 53.6 -25.17 51.45 -24.25 49.29 C-24 48.7 -23.75 48.11 -23.49 47.5 C-21.2 42.1 -18.98 36.67 -16.78 31.24 C-16.42 30.36 -16.06 29.48 -15.69 28.57 C-14.25 25.01 -12.8 21.45 -11.36 17.89 C-10.34 15.36 -9.31 12.84 -8.28 10.32 C-7.97 9.55 -7.67 8.79 -7.35 8 C-4.34 0.65 -4.34 0.65 0 0 Z " fill="#FDFDFD" transform="translate(413.9375,602.5625)"/>
<path d="M0 0 C4.36 0.83 5.33 2.62 7.8 6.16 C8.32 6.95 8.84 7.74 9.38 8.56 C9.94 9.37 10.5 10.18 11.07 11.01 C12.24 12.7 13.4 14.4 14.55 16.1 C16.67 19.23 18.86 22.32 21.05 25.41 C22.54 27.52 24.03 29.63 25.51 31.75 C28.58 36.09 31.74 40.36 34.93 44.62 C36.26 46.62 36.26 46.62 36.26 48.62 C37.58 48.95 38.9 49.28 40.26 49.62 C40.25 49.04 40.25 48.45 40.24 47.85 C40.2 41.78 40.17 35.72 40.15 29.65 C40.14 27.38 40.12 25.12 40.11 22.85 C40.08 19.6 40.07 16.35 40.06 13.1 C40.05 12.08 40.04 11.06 40.03 10.01 C40.03 8.6 40.03 8.6 40.03 7.16 C40.03 6.33 40.02 5.5 40.02 4.65 C40.26 2.62 40.26 2.62 42.26 0.62 C44.82 0.43 44.82 0.43 47.26 0.62 C48.26 1.62 48.26 1.62 48.38 4.25 C48.38 5.42 48.37 6.59 48.37 7.79 C48.37 8.44 48.37 9.08 48.37 9.74 C48.37 11.88 48.36 14.02 48.36 16.16 C48.35 17.63 48.35 19.11 48.35 20.59 C48.35 24.49 48.34 28.39 48.33 32.28 C48.32 36.26 48.31 40.23 48.31 44.21 C48.3 52.01 48.28 59.82 48.26 67.62 C41.51 67.8 41.51 67.8 39.21 66.21 C34.2 60.06 29.71 53.61 25.27 47.04 C20.63 40.18 15.72 33.51 10.84 26.81 C8.63 23.76 6.45 20.69 4.26 17.62 C3.93 34.12 3.6 50.62 3.26 67.62 C0.95 67.62 -1.36 67.62 -3.74 67.62 C-5.54 65.82 -4.88 63.09 -4.89 60.66 C-4.89 59.39 -4.9 58.11 -4.91 56.8 C-4.91 55.4 -4.91 54 -4.91 52.59 C-4.91 51.17 -4.92 49.74 -4.92 48.31 C-4.93 45.31 -4.93 42.31 -4.93 39.31 C-4.93 35.46 -4.94 31.62 -4.96 27.77 C-4.97 24.82 -4.97 21.86 -4.97 18.91 C-4.97 17.49 -4.98 16.07 -4.98 14.65 C-4.99 12.67 -4.99 10.69 -4.99 8.71 C-4.99 7.58 -4.99 6.45 -4.99 5.28 C-4.64 1.52 -3.63 0.82 0 0 Z " fill="#FDFDFD" transform="translate(541.7421875,602.37890625)"/>
<path d="M0 0 C0.79 0 1.58 0.01 2.39 0.01 C3.2 0.01 4.02 0.01 4.85 0.01 C6.57 0.01 8.29 0.01 10 0.02 C12.63 0.03 15.26 0.02 17.89 0 C19.56 0.01 21.23 0.01 22.89 0.01 C23.68 0.01 24.47 0 25.28 0 C29.12 0.03 30.94 0.1 34.21 2.28 C33.88 3.93 33.55 5.58 33.21 7.28 C17.37 7.77 17.37 7.77 1.21 8.28 C0.88 14.88 0.55 21.48 0.21 28.28 C3.33 28.37 3.33 28.37 6.52 28.46 C8.53 28.52 10.54 28.59 12.54 28.65 C13.94 28.69 15.34 28.74 16.74 28.78 C18.75 28.83 20.76 28.9 22.77 28.96 C23.98 29 25.19 29.03 26.43 29.07 C29.21 29.28 29.21 29.28 30.21 30.28 C30.25 32.28 30.25 34.28 30.21 36.28 C29.37 36.33 28.52 36.39 27.65 36.45 C24.54 36.65 21.42 36.86 18.3 37.08 C16.95 37.17 15.6 37.26 14.25 37.35 C12.31 37.48 10.37 37.61 8.43 37.74 C7.26 37.82 6.1 37.9 4.89 37.98 C2.29 37.99 2.29 37.99 1.21 39.28 C1.12 40.69 1.1 42.11 1.11 43.53 C1.11 44.39 1.12 45.24 1.12 46.12 C1.13 47.02 1.14 47.92 1.15 48.84 C1.15 49.74 1.16 50.64 1.16 51.57 C1.17 53.81 1.19 56.04 1.21 58.28 C2.14 58.3 3.07 58.32 4.02 58.34 C7.46 58.42 10.9 58.5 14.34 58.6 C15.83 58.63 17.32 58.67 18.81 58.7 C20.95 58.75 23.09 58.8 25.23 58.86 C27.16 58.91 27.16 58.91 29.14 58.96 C32.21 59.28 32.21 59.28 34.21 61.28 C34.33 64.4 34.33 64.4 34.21 67.28 C28.39 67.3 22.57 67.32 16.75 67.33 C14.77 67.34 12.78 67.34 10.8 67.35 C7.96 67.37 5.12 67.37 2.28 67.38 C0.94 67.38 0.94 67.38 -0.43 67.39 C-2.55 67.39 -4.67 67.34 -6.79 67.28 C-8.59 65.48 -7.93 62.75 -7.94 60.32 C-7.94 59.05 -7.95 57.77 -7.96 56.46 C-7.96 55.06 -7.96 53.65 -7.96 52.25 C-7.96 50.82 -7.97 49.39 -7.97 47.96 C-7.97 44.97 -7.98 41.97 -7.98 38.97 C-7.98 35.12 -7.99 31.27 -8.01 27.42 C-8.02 24.47 -8.02 21.52 -8.02 18.57 C-8.02 17.15 -8.03 15.73 -8.03 14.31 C-8.04 12.33 -8.04 10.35 -8.03 8.36 C-8.04 7.23 -8.04 6.11 -8.04 4.94 C-7.55 -0.32 -4.59 0.04 0 0 Z " fill="#FDFDFD" transform="translate(333.79087829589844,602.7221069335938)"/>
<path d="M0 0 C2.94 0.19 2.94 0.19 3.94 1.19 C4.06 2.97 4.12 4.75 4.14 6.53 C4.16 7.67 4.18 8.82 4.2 9.99 C4.22 11.23 4.24 12.47 4.25 13.75 C4.27 15.02 4.3 16.28 4.32 17.58 C4.37 20.95 4.42 24.31 4.47 27.68 C4.52 31.11 4.58 34.54 4.63 37.97 C4.74 44.71 4.84 51.45 4.94 58.19 C19.79 58.68 19.79 58.68 34.94 59.19 C35.6 61.5 36.26 63.81 36.94 66.19 C35.07 68.05 32.41 67.32 29.93 67.33 C28.67 67.32 28.67 67.32 27.38 67.32 C26.09 67.32 26.09 67.32 24.77 67.32 C22.95 67.32 21.13 67.32 19.31 67.32 C16.52 67.31 13.72 67.32 10.93 67.32 C9.16 67.32 7.4 67.32 5.63 67.32 C4.79 67.32 3.95 67.32 3.08 67.33 C-2.83 67.3 -2.83 67.3 -5.06 66.19 C-5.11 57.88 -5.14 49.57 -5.17 41.26 C-5.18 37.4 -5.19 33.54 -5.21 29.68 C-5.24 25.96 -5.25 22.24 -5.25 18.52 C-5.26 17.1 -5.26 15.67 -5.27 14.25 C-5.29 12.26 -5.29 10.28 -5.29 8.29 C-5.29 7.16 -5.3 6.02 -5.3 4.86 C-4.94 0.87 -3.94 0.24 0 0 Z " fill="#FDFDFD" transform="translate(269.0625,602.8125)"/>
<path d="M0 0 C1.37 0 1.37 0 2.76 0.01 C3.65 -0.01 4.55 -0.02 5.47 -0.04 C10.71 -0.04 14.54 0.28 19.01 3.32 C22.23 7.04 23.34 11.16 23.01 16.01 C22.29 20.07 21.24 22.59 18.01 25.32 C12.27 27.11 7.12 27.61 1.13 27.51 C0.37 27.51 -0.38 27.51 -1.16 27.51 C-6.71 27.46 -6.71 27.46 -8.99 26.32 C-9.05 22.36 -9.09 18.41 -9.12 14.45 C-9.13 13.32 -9.15 12.19 -9.17 11.03 C-9.17 9.95 -9.18 8.88 -9.19 7.77 C-9.2 6.77 -9.21 5.78 -9.22 4.75 C-8.7 -0.85 -4.48 0.04 0 0 Z " fill="#040404" transform="translate(480.9921875,610.677734375)"/>
<path d="M0 0 C0.66 0 1.32 0 2 0 C3.57 3.93 5.14 7.86 6.7 11.8 C7.23 13.14 7.76 14.47 8.3 15.81 C9.07 17.73 9.83 19.66 10.59 21.58 C11.05 22.74 11.52 23.9 11.99 25.09 C13 28 13 28 13 31 C5.41 31 -2.18 31 -10 31 C-11.34 26.99 -10.26 25.47 -8.69 21.58 C-8.45 20.96 -8.2 20.35 -7.95 19.71 C-7.16 17.74 -6.36 15.78 -5.56 13.81 C-5.03 12.48 -4.49 11.14 -3.96 9.81 C-2.65 6.53 -1.33 3.27 0 0 Z " fill="#040404" transform="translate(413,616)"/>
<path d="M0 0 C1.73 -0.03 1.73 -0.03 3.5 -0.05 C6.56 0.31 6.56 0.31 8.45 1.61 C10.3 4.44 9.86 7.05 9.56 10.31 C7.56 12.31 7.56 12.31 4.12 12.54 C2.75 12.54 1.37 12.52 0 12.5 C-0.7 12.5 -1.4 12.5 -2.12 12.5 C-7.3 12.45 -7.3 12.45 -8.44 11.31 C-8.61 9.32 -8.61 9.32 -8.62 6.88 C-8.64 6.07 -8.65 5.27 -8.67 4.44 C-8.11 -0.68 -4.19 0.01 0 0 Z " fill="#FDFDFD" transform="translate(936.4375,642.6875)"/>
<path d="M0 0 C0.97 -0.02 1.94 -0.03 2.93 -0.05 C5.56 0.31 5.56 0.31 7.39 1.61 C9.33 4.42 8.86 7.02 8.56 10.31 C6.56 12.31 6.56 12.31 3.56 12.54 C2.38 12.53 1.21 12.51 0 12.5 C-1.77 12.49 -1.77 12.49 -3.57 12.48 C-6.44 12.31 -6.44 12.31 -7.44 11.31 C-7.61 9.32 -7.61 9.32 -7.62 6.88 C-7.64 6.07 -7.65 5.27 -7.67 4.44 C-7.16 -0.28 -3.97 0.02 0 0 Z " fill="#FDFDFD" transform="translate(935.4375,616.6875)"/>
</svg>
