<?xml version="1.0" encoding="UTF-8"?>
<!-- Generator: visioncortex VTracer 0.6.3 -->
<svg version="1.1" xmlns="http://www.w3.org/2000/svg" width="1280" height="1280">
<path d="M0 0 C0.71 -0 1.42 -0 2.14 -0 C4.55 -0.01 6.95 -0 9.35 -0 C11.08 -0 12.8 -0 14.53 -0.01 C19.3 -0.01 24.07 -0.01 28.84 -0 C33.97 -0 39.11 -0.01 44.24 -0.01 C54.31 -0.01 64.38 -0.01 74.44 -0.01 C82.62 -0.01 90.8 -0.01 98.98 -0.01 C100.15 -0.01 101.31 -0.01 102.5 -0.01 C104.86 -0.01 107.22 -0.01 109.58 -0.01 C131.74 -0.01 153.9 -0.01 176.06 -0 C195.09 0 214.12 0 233.15 -0 C255.23 -0.01 277.3 -0.01 299.38 -0.01 C301.73 -0.01 304.08 -0.01 306.43 -0.01 C307.59 -0.01 308.75 -0.01 309.94 -0.01 C318.11 -0.01 326.28 -0.01 334.46 -0.01 C344.41 -0.01 354.37 -0.01 364.33 -0.01 C369.41 -0 374.49 -0 379.58 -0.01 C384.23 -0.01 388.87 -0.01 393.52 -0 C395.21 -0 396.9 -0 398.58 -0 C400.87 -0.01 403.15 -0 405.43 0 C407.34 0 407.34 0 409.28 0 C412.34 0.13 412.34 0.13 415.34 1.13 C415.34 67.13 415.34 133.13 415.34 201.13 C411.85 202.29 409.12 202.25 405.43 202.25 C404.72 202.25 404.01 202.25 403.28 202.26 C400.88 202.26 398.48 202.26 396.08 202.25 C394.35 202.25 392.62 202.26 390.89 202.26 C386.12 202.26 381.35 202.26 376.58 202.26 C371.45 202.25 366.31 202.26 361.17 202.26 C351.11 202.27 341.04 202.26 330.97 202.26 C322.79 202.26 314.61 202.26 306.43 202.26 C305.27 202.26 304.11 202.26 302.91 202.26 C300.55 202.26 298.19 202.26 295.83 202.26 C273.67 202.26 251.52 202.26 229.36 202.26 C210.33 202.25 191.3 202.25 172.27 202.26 C150.19 202.26 128.12 202.26 106.04 202.26 C103.69 202.26 101.34 202.26 98.98 202.26 C97.83 202.26 96.67 202.26 95.48 202.26 C87.3 202.26 79.13 202.26 70.95 202.26 C61 202.26 51.05 202.26 41.09 202.26 C36.01 202.26 30.92 202.26 25.84 202.26 C21.2 202.26 16.55 202.26 11.9 202.25 C10.22 202.25 8.53 202.25 6.84 202.26 C4.56 202.26 2.28 202.26 0 202.25 C-1.91 202.25 -1.91 202.25 -3.85 202.25 C-6.66 202.13 -6.66 202.13 -7.66 201.13 C-7.76 198.55 -7.79 196 -7.79 193.42 C-7.79 192.6 -7.79 191.79 -7.79 190.94 C-7.79 188.19 -7.79 185.43 -7.79 182.67 C-7.79 180.7 -7.79 178.73 -7.79 176.76 C-7.8 171.4 -7.8 166.04 -7.79 160.67 C-7.79 155.07 -7.79 149.47 -7.79 143.87 C-7.8 134.47 -7.79 125.06 -7.79 115.66 C-7.78 104.77 -7.79 93.87 -7.79 82.98 C-7.8 73.65 -7.8 64.32 -7.79 54.99 C-7.79 49.4 -7.79 43.82 -7.79 38.24 C-7.8 32.99 -7.8 27.75 -7.79 22.5 C-7.79 20.57 -7.79 18.64 -7.79 16.71 C-7.79 14.08 -7.79 11.46 -7.79 8.83 C-7.79 8.06 -7.79 7.28 -7.79 6.48 C-7.77 -0.49 -6.79 0 0 0 Z M42.34 66.13 C42.34 87.58 42.34 109.03 42.34 131.13 C54.88 131.13 67.42 131.13 80.34 131.13 C80.34 129.15 80.34 127.17 80.34 125.13 C70.11 124.8 59.88 124.47 49.34 124.13 C48.85 95.42 48.85 95.42 48.34 66.13 C46.36 66.13 44.38 66.13 42.34 66.13 Z M103.34 66.13 C103.34 87.58 103.34 109.03 103.34 131.13 C116.54 131.13 129.74 131.13 143.34 131.13 C143.34 129.15 143.34 127.17 143.34 125.13 C141.9 125.09 141.9 125.09 140.42 125.05 C136.85 124.96 133.29 124.86 129.72 124.75 C128.18 124.71 126.63 124.67 125.09 124.63 C122.87 124.57 120.66 124.51 118.44 124.44 C117.74 124.43 117.05 124.41 116.33 124.39 C111.46 124.24 111.46 124.24 110.34 123.13 C110.24 121.58 110.21 120.02 110.21 118.47 C110.21 117.53 110.21 116.59 110.2 115.62 C110.21 114.63 110.21 113.64 110.22 112.63 C110.21 111.64 110.21 110.65 110.2 109.63 C110.21 108.69 110.21 107.75 110.21 106.78 C110.21 105.91 110.21 105.05 110.21 104.15 C110.34 102.13 110.34 102.13 111.34 101.13 C113.34 100.97 115.34 100.87 117.35 100.81 C118.56 100.77 119.78 100.73 121.03 100.68 C122.31 100.64 123.59 100.6 124.9 100.56 C126.19 100.52 127.47 100.48 128.79 100.43 C131.98 100.33 135.16 100.22 138.34 100.13 C138.34 98.15 138.34 96.17 138.34 94.13 C124.48 93.63 124.48 93.63 110.34 93.13 C110.34 86.53 110.34 79.93 110.34 73.13 C120.24 72.8 130.14 72.47 140.34 72.13 C140.67 70.15 141 68.17 141.34 66.13 C128.8 66.13 116.26 66.13 103.34 66.13 Z M186.34 66.13 C185.89 67.22 185.89 67.22 185.42 68.33 C185 69.33 184.59 70.34 184.15 71.38 C183.7 72.47 183.24 73.57 182.77 74.7 C181.86 76.88 180.95 79.06 180.04 81.24 C178.08 85.92 176.14 90.6 174.28 95.31 C173.06 98.39 171.77 101.42 170.4 104.44 C168.25 109.21 166.42 114.1 164.59 119.01 C163.34 122.13 163.34 122.13 161.69 125.33 C160.12 128.06 160.12 128.06 160.34 131.13 C163.22 131.54 163.22 131.54 166.34 131.13 C169.82 127.13 170.66 122.18 172.34 117.13 C183.89 117.13 195.44 117.13 207.34 117.13 C208.66 120.76 209.98 124.39 211.34 128.13 C212 129.12 212.66 130.11 213.34 131.13 C216.93 131.38 216.93 131.38 220.34 131.13 C219.35 128.16 218.36 125.19 217.34 122.13 C216.68 122.13 216.02 122.13 215.34 122.13 C215.22 121.25 215.1 120.38 214.98 119.47 C214.36 116.21 213.42 113.6 212.09 110.56 C210.21 106.2 208.45 101.82 206.78 97.38 C205.17 93.14 203.41 89.1 201.31 85.09 C199.78 81.98 198.55 78.76 197.29 75.54 C196.04 72.37 194.7 69.25 193.34 66.13 C191.03 66.13 188.72 66.13 186.34 66.13 Z M241.34 66.13 C241.34 87.58 241.34 109.03 241.34 131.13 C243.65 131.13 245.96 131.13 248.34 131.13 C248.67 123.21 249 115.29 249.34 107.13 C261.67 106.63 261.67 106.63 264.41 108.63 C267.09 112.09 269.58 115.63 272.03 119.25 C272.53 119.98 273.03 120.71 273.54 121.46 C277.18 126.81 277.18 126.81 278.34 129.13 C279 129.13 279.66 129.13 280.34 129.13 C280.34 129.79 280.34 130.45 280.34 131.13 C282.65 131.13 284.96 131.13 287.34 131.13 C286.85 129.15 286.85 129.15 286.34 127.13 C285.68 127.13 285.02 127.13 284.34 127.13 C284.11 126.45 283.89 125.76 283.65 125.06 C282.26 121.93 280.53 119.49 278.46 116.77 C277.34 115.13 277.34 115.13 276.34 112.13 C275.68 112.13 275.02 112.13 274.34 112.13 C274.01 110.48 273.68 108.83 273.34 107.13 C274.03 106.68 274.72 106.23 275.42 105.77 C276.32 105.17 277.23 104.56 278.15 103.94 C279.05 103.35 279.94 102.75 280.86 102.15 C284.91 98.85 286.76 95.26 287.34 90.13 C287.54 85.34 287.55 80.79 286.34 76.13 C285.68 76.13 285.02 76.13 284.34 76.13 C284.09 75.36 283.85 74.6 283.59 73.81 C281.33 68.96 278.28 68.1 273.34 66.13 C262.78 66.13 252.22 66.13 241.34 66.13 Z M314.34 66.13 C313.2 72.5 313.2 78.76 313.21 85.23 C313.21 86.38 313.21 87.54 313.21 88.73 C313.21 91.16 313.21 93.59 313.21 96.02 C313.22 99.75 313.21 103.47 313.2 107.19 C313.21 109.56 313.21 111.92 313.21 114.29 C313.21 115.4 313.2 116.51 313.2 117.66 C313.21 118.7 313.21 119.73 313.21 120.8 C313.21 121.71 313.21 122.62 313.21 123.56 C313.34 126.17 313.76 128.58 314.34 131.13 C316.32 131.13 318.3 131.13 320.34 131.13 C320.67 114.63 321 98.13 321.34 81.13 C322 80.8 322.66 80.47 323.34 80.13 C323.34 80.79 323.34 81.45 323.34 82.13 C323.96 82.74 324.58 83.36 325.22 84 C327.21 86 328.24 87.56 329.34 90.13 C330 90.13 330.66 90.13 331.34 90.13 C331.65 90.91 331.96 91.69 332.28 92.5 C333.27 95.05 333.27 95.05 334.34 97.13 C335 97.13 335.66 97.13 336.34 97.13 C336.81 98.3 336.81 98.3 337.28 99.5 C338.27 102.05 338.27 102.05 339.34 104.13 C340 104.13 340.66 104.13 341.34 104.13 C341.65 104.91 341.96 105.69 342.28 106.5 C343.27 109.05 343.27 109.05 344.34 111.13 C345 111.13 345.66 111.13 346.34 111.13 C346.57 111.8 346.79 112.48 347.03 113.17 C348.71 116.95 350.97 120.06 353.4 123.38 C353.86 124.01 354.32 124.65 354.8 125.31 C356.92 128.34 356.92 128.34 359.34 131.13 C361.32 131.13 363.3 131.13 365.34 131.13 C365.34 109.68 365.34 88.23 365.34 66.13 C363.36 66.13 361.38 66.13 359.34 66.13 C359.01 82.63 358.68 99.13 358.34 116.13 C352.7 110.49 352.7 110.49 350.54 107.63 C350.07 106.99 349.59 106.36 349.09 105.71 C348.6 105.04 348.1 104.37 347.59 103.69 C346.81 102.65 346.81 102.65 346.02 101.59 C342.11 96.32 338.5 90.9 335.11 85.29 C334.24 83.87 333.29 82.49 332.34 81.13 C331.68 81.13 331.02 81.13 330.34 81.13 C329.88 79.95 329.88 79.95 329.4 78.75 C328.41 76.2 328.41 76.2 327.34 74.13 C326.68 74.13 326.02 74.13 325.34 74.13 C325.34 73.14 325.34 72.15 325.34 71.13 C324.68 71.13 324.02 71.13 323.34 71.13 C322.68 69.48 322.02 67.83 321.34 66.13 C319.03 66.13 316.72 66.13 314.34 66.13 Z " fill="#000000" transform="translate(224.65834617614746,538.8741588592529)"/>
<path d="M0 0 C1.28 -0 2.56 -0.01 3.89 -0.01 C5.32 -0.01 6.75 -0 8.19 0 C9.71 -0 11.23 -0 12.75 -0.01 C16.96 -0.01 21.17 -0.01 25.38 -0 C29.95 0 34.51 -0 39.08 -0.01 C47.1 -0.01 55.11 -0.01 63.13 -0 C75.05 0.01 86.97 0.01 98.89 0 C118.94 -0 138.98 -0 159.03 0.01 C178.89 0.02 198.75 0.02 218.61 0.02 C219.84 0.02 221.08 0.02 222.35 0.02 C227.35 0.02 232.36 0.02 237.37 0.02 C283.7 0.02 330.03 0.03 376.36 0.04 C418.82 0.06 461.29 0.06 503.76 0.06 C505.1 0.06 506.45 0.06 507.79 0.06 C510.47 0.06 513.15 0.06 515.83 0.06 C522.51 0.06 529.19 0.06 535.87 0.06 C537.19 0.06 538.51 0.06 539.86 0.06 C574.75 0.06 609.63 0.07 644.51 0.07 C645.75 0.07 646.99 0.07 648.27 0.07 C653.26 0.08 658.24 0.08 663.23 0.08 C680.61 0.08 697.99 0.08 715.38 0.08 C737.77 0.08 760.16 0.09 782.56 0.1 C794.41 0.1 806.27 0.1 818.12 0.1 C826.03 0.1 833.93 0.11 841.83 0.11 C846.35 0.11 850.86 0.12 855.37 0.11 C859.47 0.11 863.57 0.11 867.66 0.12 C869.15 0.12 870.63 0.12 872.11 0.12 C874.1 0.11 876.1 0.12 878.09 0.12 C879.2 0.12 880.31 0.12 881.46 0.12 C883.92 0.25 883.92 0.25 884.92 1.25 C885.02 4.41 885.06 7.54 885.05 10.7 C885.05 11.71 885.05 12.71 885.05 13.75 C885.06 17.14 885.05 20.54 885.05 23.93 C885.05 26.35 885.05 28.77 885.06 31.2 C885.06 37.11 885.06 43.02 885.06 48.93 C885.05 53.74 885.05 58.54 885.06 63.34 C885.06 64.37 885.06 64.37 885.06 65.41 C885.06 66.8 885.06 68.18 885.06 69.57 C885.06 82.58 885.06 95.59 885.05 108.6 C885.05 119.78 885.05 130.95 885.05 142.13 C885.06 155.09 885.06 168.05 885.06 181.01 C885.06 182.39 885.06 183.78 885.06 185.16 C885.06 185.84 885.06 186.52 885.06 187.22 C885.05 192.02 885.06 196.82 885.06 201.62 C885.06 208.07 885.06 214.53 885.05 220.98 C885.05 223.36 885.05 225.73 885.05 228.11 C885.06 231.34 885.05 234.57 885.05 237.8 C885.05 238.75 885.05 239.7 885.06 240.69 C885.04 247.14 885.04 247.14 883.92 248.25 C881.98 248.35 880.04 248.38 878.09 248.38 C876.82 248.38 875.54 248.38 874.22 248.38 C872.79 248.38 871.35 248.38 869.91 248.38 C868.39 248.38 866.87 248.38 865.35 248.38 C861.14 248.39 856.93 248.39 852.72 248.38 C848.16 248.38 843.59 248.39 839.02 248.39 C831.01 248.4 822.99 248.4 814.98 248.4 C803.06 248.39 791.14 248.4 779.22 248.4 C756.7 248.41 734.18 248.42 711.66 248.42 C694.27 248.42 676.89 248.42 659.5 248.42 C654.5 248.42 649.51 248.42 644.51 248.42 C642.65 248.43 642.65 248.43 640.75 248.43 C605.79 248.43 570.83 248.44 535.87 248.44 C533.89 248.44 533.89 248.44 531.87 248.44 C525.86 248.44 519.84 248.44 513.82 248.44 C511.14 248.43 508.46 248.43 505.78 248.43 C504.43 248.43 503.09 248.43 501.75 248.43 C459.28 248.43 416.81 248.44 374.34 248.46 C327.43 248.47 280.52 248.48 233.6 248.48 C228.61 248.48 223.61 248.48 218.61 248.48 C217.38 248.48 216.15 248.48 214.88 248.48 C195.03 248.48 175.19 248.48 155.34 248.49 C135.41 248.5 115.48 248.5 95.55 248.5 C83.7 248.49 71.84 248.49 59.99 248.5 C52.08 248.51 44.18 248.51 36.27 248.5 C31.76 248.5 27.24 248.5 22.73 248.5 C18.63 248.51 14.53 248.51 10.44 248.5 C8.95 248.5 7.47 248.5 5.99 248.51 C4 248.51 2 248.51 0 248.5 C-1.66 248.5 -1.66 248.5 -3.36 248.5 C-6.08 248.25 -6.08 248.25 -9.08 246.25 C-9.45 244.44 -9.45 244.44 -9.46 242.2 C-9.46 241.35 -9.47 240.49 -9.48 239.61 C-9.47 238.67 -9.47 237.73 -9.46 236.76 C-9.46 235.76 -9.47 234.77 -9.47 233.74 C-9.49 230.38 -9.48 227.02 -9.47 223.66 C-9.47 221.25 -9.48 218.85 -9.48 216.45 C-9.49 210.6 -9.49 204.74 -9.48 198.88 C-9.48 194.12 -9.48 189.36 -9.48 184.61 C-9.48 183.93 -9.48 183.25 -9.48 182.56 C-9.48 181.18 -9.48 179.81 -9.48 178.43 C-9.49 165.54 -9.48 152.65 -9.47 139.75 C-9.45 128.68 -9.46 117.61 -9.47 106.54 C-9.49 93.69 -9.49 80.85 -9.48 68 C-9.48 66.63 -9.48 65.26 -9.48 63.89 C-9.48 63.22 -9.48 62.55 -9.48 61.85 C-9.48 57.1 -9.48 52.34 -9.49 47.59 C-9.5 41.19 -9.49 34.8 -9.47 28.4 C-9.47 26.05 -9.47 23.69 -9.48 21.34 C-9.48 18.14 -9.47 14.94 -9.46 11.74 C-9.47 10.8 -9.47 9.86 -9.48 8.88 C-9.47 8.03 -9.46 7.18 -9.46 6.3 C-9.46 5.56 -9.45 4.82 -9.45 4.06 C-8.49 -0.61 -3.78 -0 0 0 Z M-0.08 10.25 C0.25 85.49 0.58 160.73 0.92 238.25 C289.67 238.25 578.42 238.25 875.92 238.25 C875.92 163.01 875.92 87.77 875.92 10.25 C586.84 10.25 297.76 10.25 -0.08 10.25 Z " fill="#000000" transform="translate(201.07815086841583,515.7504523396492)"/>
<path d="M0 0 C0.89 -0.01 1.78 -0.01 2.7 -0.02 C4.59 -0.03 6.48 -0.03 8.37 -0.04 C11.24 -0.05 14.11 -0.08 16.99 -0.11 C18.82 -0.12 20.66 -0.12 22.5 -0.12 C23.35 -0.14 24.2 -0.15 25.08 -0.16 C31.59 -0.14 37.4 0.77 42.49 5.18 C43.04 5.87 43.59 6.56 44.15 7.27 C44.72 7.96 45.28 8.65 45.87 9.36 C49.18 13.89 48.67 18.78 48.21 24.2 C46.71 27.89 46.71 27.89 45.21 30.2 C44.55 30.2 43.89 30.2 43.21 30.2 C43.7 34.6 45.04 36.23 48.21 39.2 C51.3 44.09 50.81 49.64 50.21 55.2 C47.4 61.16 42.27 65.59 36.21 68.2 C28.49 69.76 20.34 69.39 12.49 69.39 C10.39 69.39 8.29 69.41 6.19 69.43 C4.83 69.43 3.48 69.43 2.13 69.43 C0.92 69.44 -0.28 69.44 -1.53 69.45 C-4.74 69.21 -6.86 68.46 -9.79 67.2 C-9.81 58.62 -9.83 50.03 -9.84 41.44 C-9.84 37.45 -9.85 33.46 -9.86 29.48 C-9.87 25.63 -9.88 21.79 -9.88 17.94 C-9.88 16.47 -9.89 15 -9.89 13.53 C-9.9 11.48 -9.9 9.43 -9.9 7.38 C-9.9 6.2 -9.9 5.03 -9.91 3.83 C-9.65 -1.79 -4.45 0.02 0 0 Z M12.21 16.2 C12.21 19.5 12.21 22.8 12.21 26.2 C16.17 26.2 20.13 26.2 24.21 26.2 C24.21 25.54 24.21 24.88 24.21 24.2 C24.87 24.2 25.53 24.2 26.21 24.2 C26.21 22.22 26.21 20.24 26.21 18.2 C21.49 15.76 17.41 16.05 12.21 16.2 Z M12.21 42.2 C12.21 45.5 12.21 48.8 12.21 52.2 C14.51 52.26 16.8 52.3 19.09 52.33 C20.37 52.35 21.64 52.37 22.96 52.4 C26.3 52.56 26.3 52.56 28.21 50.2 C28.38 47.12 28.38 47.12 28.21 44.2 C24.44 42.45 21.55 41.98 17.4 42.08 C16.43 42.1 15.45 42.11 14.45 42.13 C13.71 42.16 12.97 42.18 12.21 42.2 Z " fill="#000000" transform="translate(917.78515625,602.796875)"/>
<path d="M0 0 C1.27 -0 1.27 -0 2.57 -0 C3.91 0 3.91 0 5.28 0.01 C6.17 0 7.07 0 7.99 -0 C8.84 -0 9.69 -0 10.56 0 C11.35 0 12.13 0 12.94 0 C14.78 0.13 14.78 0.13 15.78 1.13 C15.87 2.77 15.89 4.41 15.88 6.04 C15.88 7.03 15.87 8.02 15.87 9.04 C15.86 10.08 15.85 11.12 15.84 12.2 C15.84 13.24 15.83 14.28 15.83 15.36 C15.82 17.95 15.8 20.54 15.78 23.13 C22.05 23.46 28.32 23.79 34.78 24.13 C34.77 22.48 34.76 20.84 34.75 19.14 C34.74 16.99 34.73 14.84 34.72 12.7 C34.71 11.61 34.7 10.52 34.69 9.4 C34.69 8.36 34.69 7.33 34.68 6.26 C34.68 5.3 34.67 4.35 34.67 3.36 C34.78 1.13 34.78 1.13 35.78 0.13 C37.26 0.03 38.74 0 40.22 0 C41.11 -0 42.01 -0 42.93 -0 C43.87 -0 44.81 0 45.78 0.01 C47.19 0 47.19 0 48.63 -0 C49.97 -0 49.97 -0 51.34 0 C52.17 0 53 0 53.85 0 C55.78 0.13 55.78 0.13 56.78 1.13 C56.88 3.19 56.9 5.25 56.89 7.3 C56.89 7.95 56.9 8.59 56.9 9.26 C56.89 11.39 56.89 13.53 56.88 15.67 C56.88 17.15 56.88 18.62 56.87 20.1 C56.87 24 56.86 27.9 56.85 31.8 C56.84 35.77 56.84 39.75 56.83 43.72 C56.82 51.52 56.8 59.33 56.78 67.13 C53.13 69.12 50.53 69.4 46.34 69.38 C45.23 69.39 44.12 69.39 42.97 69.4 C39.78 69.13 39.78 69.13 34.78 67.13 C34.78 59.21 34.78 51.29 34.78 43.13 C30.6 43.35 30.6 43.35 26.34 43.57 C25.47 43.61 24.59 43.66 23.68 43.7 C19.92 43.56 19.92 43.56 16.78 45.13 C16.62 46.84 16.53 48.55 16.46 50.26 C16.42 51.3 16.38 52.33 16.34 53.4 C16.3 54.49 16.26 55.57 16.22 56.7 C16.18 57.79 16.13 58.88 16.09 60.01 C15.98 62.71 15.88 65.42 15.78 68.13 C12.78 69.63 9.7 69.28 6.41 69.26 C5.73 69.26 5.06 69.27 4.37 69.27 C1 69.26 -1.98 69.03 -5.22 68.13 C-5.24 59.41 -5.26 50.7 -5.27 41.98 C-5.28 37.93 -5.28 33.88 -5.29 29.83 C-5.31 25.93 -5.31 22.03 -5.31 18.12 C-5.32 16.63 -5.32 15.14 -5.32 13.65 C-5.33 11.56 -5.33 9.48 -5.33 7.4 C-5.33 6.21 -5.34 5.02 -5.34 3.8 C-5.15 -0.46 -3.85 0.01 0 0 Z " fill="#000000" transform="translate(768.21875,602.8671875)"/>
<path d="M0 0 C3.31 -0.03 6.62 -0.05 9.94 -0.06 C10.88 -0.07 11.83 -0.08 12.8 -0.09 C14.15 -0.09 14.15 -0.09 15.53 -0.1 C16.78 -0.11 16.78 -0.11 18.05 -0.11 C20 0 20 0 21 1 C21.14 4.12 21.21 7.21 21.25 10.33 C21.28 12.26 21.31 14.2 21.35 16.13 C21.39 19.19 21.44 22.25 21.48 25.31 C21.52 28.25 21.57 31.2 21.62 34.14 C21.63 35.05 21.64 35.96 21.65 36.9 C21.73 41.36 21.9 44.95 24 49 C25.79 48.89 27.58 48.76 29.38 48.62 C30.37 48.56 31.37 48.49 32.4 48.41 C35.16 48.24 35.16 48.24 37 46 C37.32 44.04 37.32 44.04 37.29 41.77 C37.31 40.45 37.31 40.45 37.33 39.12 C37.33 38.17 37.34 37.22 37.34 36.25 C37.36 35.28 37.37 34.31 37.39 33.31 C37.43 30.21 37.47 27.1 37.5 24 C37.54 19.92 37.59 15.83 37.66 11.75 C37.66 10.8 37.67 9.86 37.67 8.88 C37.69 7.57 37.69 7.57 37.71 6.23 C37.72 5.46 37.73 4.69 37.73 3.9 C38 2 38 2 40 0 C41.96 -0.24 41.96 -0.24 44.32 -0.23 C45.16 -0.23 46.01 -0.23 46.88 -0.22 C47.77 -0.21 48.65 -0.2 49.56 -0.19 C50.45 -0.19 51.34 -0.19 52.26 -0.19 C58.86 -0.14 58.86 -0.14 60 1 C60.11 2.43 60.16 3.86 60.18 5.29 C60.2 6.65 60.2 6.65 60.22 8.05 C60.22 9.04 60.23 10.04 60.24 11.06 C60.25 12.08 60.25 13.1 60.26 14.15 C60.28 16.32 60.29 18.49 60.3 20.66 C60.31 23.96 60.36 27.25 60.4 30.55 C60.41 32.66 60.42 34.77 60.43 36.88 C60.44 37.85 60.46 38.83 60.48 39.84 C60.46 46.43 59.14 51.22 56 57 C55.42 58.07 54.85 59.14 54.25 60.25 C48.86 66.84 41.29 69.72 33 71 C24.32 71.31 15.21 69.48 8.41 63.86 C0.32 55.52 -1.48 46.83 -1.33 35.47 C-1.33 34.51 -1.32 33.55 -1.32 32.57 C-1.32 30.56 -1.3 28.56 -1.28 26.56 C-1.25 23.48 -1.24 20.4 -1.23 17.33 C-1.23 15.37 -1.21 13.42 -1.2 11.47 C-1.2 10.55 -1.19 9.63 -1.19 8.68 C-1.18 7.83 -1.17 6.98 -1.16 6.11 C-1.15 5.36 -1.15 4.61 -1.14 3.84 C-1 2 -1 2 0 0 Z " fill="#000000" transform="translate(837,603)"/>
<path d="M0 0 C3.71 -0.09 7.42 -0.14 11.12 -0.19 C12.17 -0.21 13.22 -0.24 14.3 -0.26 C20.99 -0.33 25.78 -0.07 30.84 4.75 C33.39 9.69 32.66 15.63 32 21 C28.96 25.85 24.39 27.52 19 29 C15.84 29.35 12.74 29.33 9.56 29.25 C8.75 29.24 7.93 29.24 7.1 29.23 C1.16 29.16 1.16 29.16 0 28 C-0.09 25.93 -0.11 23.85 -0.1 21.78 C-0.09 20.52 -0.09 19.26 -0.09 17.96 C-0.08 16.62 -0.07 15.28 -0.06 13.94 C-0.06 12.59 -0.05 11.25 -0.05 9.9 C-0.04 6.6 -0.02 3.3 0 0 Z " fill="#000000" transform="translate(473,611)"/>
<path d="M0 0 C1.85 0.14 1.85 0.14 4 1 C5.27 3.48 5.27 3.48 6.38 6.75 C8.5 12.76 11.03 18.41 13.86 24.12 C15 27 15 27 15 32 C6.42 32 -2.16 32 -11 32 C-12.22 27.13 -11.36 25.85 -9.31 21.38 C-8.75 20.13 -8.19 18.88 -7.63 17.62 C-7.09 16.43 -6.55 15.23 -6 14 C-4.93 11.37 -3.89 8.73 -2.86 6.09 C-2 4 -1.03 2 0 0 Z " fill="#000000" transform="translate(413,616)"/>
</svg>
