<?xml version="1.0" encoding="UTF-8"?>
<!-- Generator: visioncortex VTracer 0.6.3 -->
<svg version="1.1" xmlns="http://www.w3.org/2000/svg" width="1280" height="1280">
<path d="M0 0 C0.7 -0.01 1.39 -0.01 2.11 -0.02 C4.45 -0.03 6.78 -0.01 9.12 0.01 C10.81 0.01 12.5 0 14.19 -0.01 C18.84 -0.02 23.49 -0 28.14 0.02 C33.15 0.04 38.17 0.03 43.18 0.03 C53 0.02 62.83 0.04 72.65 0.07 C84.08 0.1 95.52 0.1 106.96 0.11 C127.36 0.11 147.76 0.14 168.16 0.19 C187.97 0.23 207.77 0.26 227.58 0.27 C228.8 0.27 230.02 0.27 231.27 0.27 C236.17 0.27 241.07 0.28 245.98 0.28 C267.11 0.29 288.25 0.32 309.39 0.34 C312.82 0.34 316.24 0.35 319.67 0.35 C331.65 0.37 343.64 0.38 355.63 0.41 C360.59 0.42 365.55 0.43 370.51 0.43 C375.05 0.44 379.59 0.45 384.13 0.46 C385.77 0.46 387.41 0.46 389.05 0.46 C391.29 0.47 393.52 0.47 395.75 0.48 C396.99 0.48 398.23 0.49 399.51 0.49 C409.18 0.85 409.18 0.85 411.88 3.37 C414.26 8.13 414.15 13.08 414.13 18.31 C414.14 19.08 414.14 19.84 414.14 20.63 C414.15 23.2 414.15 25.77 414.15 28.33 C414.15 30.17 414.15 32.02 414.16 33.86 C414.17 38.86 414.17 43.86 414.17 48.86 C414.17 51.98 414.17 55.11 414.17 58.23 C414.18 69.13 414.19 80.03 414.19 90.93 C414.19 101.09 414.2 111.25 414.21 121.41 C414.23 130.14 414.23 138.86 414.23 147.58 C414.23 152.79 414.23 158 414.24 163.21 C414.25 168.11 414.25 173.01 414.25 177.91 C414.24 179.71 414.25 181.51 414.25 183.3 C414.26 185.76 414.26 188.22 414.25 190.67 C414.25 191.38 414.26 192.09 414.26 192.82 C414.23 198.19 413.94 203.68 410 207.62 C405.23 208.54 400.6 208.75 395.75 208.76 C395.05 208.76 394.35 208.76 393.63 208.76 C391.3 208.77 388.96 208.77 386.63 208.77 C384.93 208.78 383.24 208.78 381.55 208.79 C376.9 208.8 372.25 208.8 367.6 208.81 C362.58 208.81 357.57 208.82 352.55 208.84 C340.45 208.86 328.34 208.87 316.24 208.89 C312.82 208.89 309.4 208.9 305.98 208.9 C284.76 208.92 263.54 208.95 242.31 208.96 C237.4 208.96 232.49 208.97 227.58 208.97 C226.36 208.97 225.14 208.97 223.88 208.97 C204.07 208.98 184.27 209.02 164.47 209.06 C144.14 209.1 123.82 209.12 103.49 209.13 C92.08 209.13 80.66 209.14 69.25 209.18 C59.53 209.21 49.82 209.22 40.1 209.21 C35.14 209.2 30.19 209.2 25.23 209.23 C20.69 209.25 16.16 209.25 11.62 209.23 C9.98 209.23 8.33 209.23 6.69 209.25 C4.46 209.27 2.23 209.26 0 209.24 C-1.24 209.24 -2.48 209.24 -3.76 209.24 C-7.93 208.44 -9.41 206.93 -12 203.62 C-12.49 200.72 -12.68 198.42 -12.63 195.53 C-12.64 194.72 -12.65 193.91 -12.66 193.08 C-12.68 190.37 -12.66 187.66 -12.65 184.95 C-12.65 183.01 -12.66 181.07 -12.67 179.12 C-12.7 173.85 -12.69 168.57 -12.67 163.29 C-12.66 157.77 -12.67 152.25 -12.68 146.73 C-12.69 137.46 -12.67 128.19 -12.65 118.92 C-12.62 108.2 -12.63 97.48 -12.66 86.76 C-12.68 77.56 -12.69 68.36 -12.67 59.15 C-12.66 53.66 -12.66 48.16 -12.68 42.66 C-12.69 37.49 -12.68 32.33 -12.66 27.16 C-12.65 25.26 -12.65 23.36 -12.66 21.47 C-12.68 18.88 -12.66 16.29 -12.63 13.7 C-12.64 12.95 -12.66 12.2 -12.67 11.42 C-12.6 7.73 -12.19 5.86 -9.9 2.93 C-6.31 0.07 -4.55 -0 0 0 Z M184 72.62 C182.81 77.11 182.81 77.11 184.06 81.31 C185.02 81.96 185.02 81.96 186 82.62 C187.05 83.34 188.1 84.06 189.19 84.81 C190.12 85.4 191.04 86 192 86.62 C193.1 82 193.31 78.85 191 74.62 C187.48 73.16 187.48 73.16 184 72.62 Z M242 72.62 C240.06 74.56 240.72 78.23 240.65 80.89 C240.63 81.63 240.6 82.38 240.58 83.14 C240.5 85.57 240.44 88 240.38 90.43 C240.34 91.66 240.34 91.66 240.31 92.91 C240.06 102.53 239.86 112.13 240.31 121.74 C240.35 122.54 240.38 123.34 240.42 124.16 C240.58 128.34 240.58 128.34 243 131.62 C243.04 130.45 243.08 129.28 243.11 128.08 C243.18 126.53 243.25 124.98 243.31 123.43 C243.34 122.66 243.36 121.89 243.38 121.1 C243.59 116.6 243.85 113.1 247 109.62 C252.27 108.43 259.34 108.89 264 111.62 C265.66 114.17 266.89 116.79 268 119.62 C268.33 119.62 268.66 119.62 269 119.62 C269.39 117.66 269.76 115.7 270.13 113.74 C270.34 112.65 270.54 111.56 270.76 110.44 C270.84 109.51 270.92 108.58 271 107.62 C269.21 105.4 269.21 105.4 266.79 105.42 C265.89 105.45 264.99 105.47 264.06 105.49 C263.09 105.51 262.11 105.52 261.1 105.54 C260.08 105.57 259.06 105.59 258 105.62 C255.98 105.67 253.96 105.71 251.94 105.74 C251.04 105.77 250.14 105.79 249.22 105.81 C247 105.62 247 105.62 245 103.62 C243.92 98.99 243.85 94.41 243.88 89.68 C243.87 89 243.87 88.33 243.86 87.63 C243.87 84.26 244.08 81.08 244.57 77.74 C245.29 74.72 245.29 74.72 244 72.62 C243.34 72.62 242.68 72.62 242 72.62 Z M313 72.62 C311.74 73.66 311.74 73.66 311.88 75.94 C311.88 76.97 311.89 78 311.89 79.06 C311.89 80.22 311.89 81.38 311.89 82.57 C311.89 83.84 311.9 85.1 311.9 86.4 C311.9 87.69 311.91 88.98 311.91 90.3 C311.91 93.72 311.92 97.15 311.93 100.57 C311.94 104.07 311.95 107.56 311.95 111.05 C311.96 117.91 311.98 124.76 312 131.62 C312.99 131.12 312.99 131.12 314 130.62 C314.03 129.44 314.05 128.26 314.08 127.04 C314.17 122.65 314.27 118.25 314.37 113.86 C314.42 111.96 314.46 110.06 314.5 108.16 C314.56 105.42 314.62 102.69 314.68 99.95 C314.7 99.11 314.72 98.27 314.74 97.4 C314.84 93.04 315.15 88.9 316 84.62 C318.64 84.29 321.28 83.96 324 83.62 C324 82.96 324 82.3 324 81.62 C323.34 81.29 322.68 80.96 322 80.62 C321.59 79.46 321.18 78.31 320.75 77.12 C320.17 75.96 319.6 74.81 319 73.62 C315.97 72.47 315.97 72.47 313 72.62 Z M101 73.62 C101 92.76 101 111.9 101 131.62 C102.49 131.12 102.49 131.12 104 130.62 C103.99 129.9 103.98 129.18 103.97 128.45 C103.93 125.21 103.9 121.98 103.88 118.74 C103.86 117.62 103.84 116.49 103.83 115.33 C103.82 114.25 103.81 113.17 103.81 112.06 C103.8 111.07 103.78 110.07 103.77 109.05 C104 106.62 104 106.62 106 104.62 C109.18 103.53 112.3 103.43 115.64 103.3 C117.25 103.24 117.25 103.24 118.88 103.17 C120 103.14 121.11 103.1 122.25 103.06 C123.38 103.01 124.5 102.97 125.67 102.92 C128.44 102.82 131.22 102.72 134 102.62 C134 101.96 134 101.3 134 100.62 C130.64 99.87 127.5 99.49 124.06 99.44 C122.69 99.41 122.69 99.41 121.29 99.37 C119.39 99.33 117.48 99.3 115.57 99.28 C108.75 99.07 108.75 99.07 105.37 97.04 C103.45 93.64 103.58 91.06 103.69 87.18 C103.71 85.88 103.74 84.58 103.76 83.25 C103.96 80.26 104.31 77.53 105 74.62 C103.68 74.29 102.36 73.96 101 73.62 Z M357 73.62 C356.98 74.67 356.96 75.73 356.94 76.81 C356.86 80.75 356.78 84.68 356.68 88.61 C356.65 90.31 356.61 92.01 356.58 93.71 C356.53 96.16 356.48 98.61 356.42 101.06 C356.4 101.81 356.39 102.56 356.38 103.34 C356.25 108.09 355.65 112.14 354 116.62 C351.38 118.56 351.38 118.56 349 119.62 C350.37 125.21 353.16 128.53 357 132.62 C360.07 129.55 359.97 126.39 360.04 122.15 C360.02 119.13 359.96 116.11 359.88 113.09 C359.86 111.99 359.83 110.89 359.81 109.76 C359.73 106.25 359.65 102.75 359.56 99.24 C359.51 96.86 359.46 94.48 359.41 92.1 C359.28 86.27 359.14 80.44 359 74.62 C358.34 74.29 357.68 73.96 357 73.62 Z M270 74.62 C270 75.28 270 75.94 270 76.62 C272.48 77.61 272.48 77.61 275 78.62 C275.66 77.63 276.32 76.64 277 75.62 C275.88 74.26 275.88 74.26 272.94 74.56 C271.97 74.58 271 74.6 270 74.62 Z M279 80.62 C279 86.23 279 91.84 279 97.62 C279.99 97.62 280.98 97.62 282 97.62 C282 92.34 282 87.06 282 81.62 C281.01 81.29 280.02 80.96 279 80.62 Z M178 82.62 C176.83 86.29 176.93 89.79 177 93.62 C177.99 94.11 177.99 94.11 179 94.62 C180.18 90.94 180.07 87.45 180 83.62 C179.34 83.29 178.68 82.96 178 82.62 Z M324 83.62 C324 85.27 324 86.92 324 88.62 C324.99 88.95 325.98 89.28 327 89.62 C326.67 87.64 326.34 85.66 326 83.62 C325.34 83.62 324.68 83.62 324 83.62 Z M197 91.62 C196.05 95.31 196.05 97.92 197 101.62 C197.66 101.29 198.32 100.96 199 100.62 C198.67 97.65 198.34 94.68 198 91.62 C197.67 91.62 197.34 91.62 197 91.62 Z M331 92.62 C330.67 93.61 330.34 94.6 330 95.62 C330.33 96.28 330.66 96.94 331 97.62 C331.66 97.62 332.32 97.62 333 97.62 C333.33 96.63 333.66 95.64 334 94.62 C333.01 93.96 332.02 93.3 331 92.62 Z M172 99.62 C169.99 101.63 170.2 105.44 169.79 108.17 C169 110.62 169 110.62 166.98 112.13 C164.79 113.47 164.79 113.47 164.32 115.99 C164.26 116.86 164.19 117.73 164.13 118.62 C164.05 119.48 163.97 120.35 163.88 121.24 C163.81 123.89 163.81 123.89 166 126.62 C166.24 125.98 166.49 125.34 166.74 124.68 C167.24 123.45 167.24 123.45 167.75 122.18 C168.24 120.94 168.24 120.94 168.74 119.68 C170 117.62 170 117.62 171.73 117 C176.56 116.19 181.49 116.43 186.38 116.43 C187.5 116.42 188.62 116.41 189.78 116.39 C199.98 116.38 199.98 116.38 205 118.62 C205.5 118.12 205.5 118.12 206 117.62 C205.91 115.76 205.76 113.91 205.56 112.06 C205.41 110.54 205.41 110.54 205.26 108.99 C205.17 108.21 205.09 107.42 205 106.62 C201.92 107.32 201.92 107.32 200.56 109.62 C198.69 112.01 197.92 112.1 195 112.62 C191.98 112.83 188.96 112.8 185.94 112.81 C185.12 112.82 184.31 112.83 183.47 112.84 C182.29 112.85 182.29 112.85 181.09 112.85 C180.38 112.85 179.67 112.86 178.93 112.86 C177 112.62 177 112.62 174 110.62 C173.49 108.02 173.49 108.02 173.31 104.99 C173.25 103.99 173.18 102.99 173.11 101.95 C173.08 101.18 173.04 100.41 173 99.62 C172.67 99.62 172.34 99.62 172 99.62 Z M274 99.62 C274 100.94 274 102.26 274 103.62 C275.32 102.63 276.64 101.64 278 100.62 C276.68 100.29 275.36 99.96 274 99.62 Z M337 100.62 C337.33 103.26 337.66 105.9 338 108.62 C338.33 108.62 338.66 108.62 339 108.62 C339 105.98 339 103.34 339 100.62 C338.34 100.62 337.68 100.62 337 100.62 Z M344 111.62 C343.67 112.61 343.34 113.6 343 114.62 C343.33 115.28 343.66 115.94 344 116.62 C344.66 116.62 345.32 116.62 346 116.62 C346.33 115.63 346.66 114.64 347 113.62 C346.01 112.96 345.02 112.3 344 111.62 Z M274 121.62 C272.7 122.68 272.7 122.68 272.94 125.18 C272.96 125.98 272.98 126.79 273 127.62 C273.99 127.62 274.98 127.62 276 127.62 C275.67 125.64 275.34 123.66 275 121.62 C274.67 121.62 274.34 121.62 274 121.62 Z M210 122.62 C209.67 122.95 209.34 123.28 209 123.62 C209.29 125.96 209.62 128.29 210 130.62 C211.22 128.85 211.22 128.85 212 126.62 C211.22 124.38 211.22 124.38 210 122.62 Z M43 124.62 C41.79 128.24 42.46 129.26 44 132.62 C44.33 132.62 44.66 132.62 45 132.62 C45 130.31 45 128 45 125.62 C44.34 125.29 43.68 124.96 43 124.62 Z " fill="#000002" transform="translate(227.9988079071045,535.3819675445557)"/>
<path d="M0 0 C1.27 -0 2.55 -0.01 3.86 -0.01 C5.29 -0.01 6.71 -0 8.14 -0 C9.65 -0 11.16 -0.01 12.67 -0.01 C16.85 -0.01 21.03 -0.01 25.22 -0.01 C29.75 -0.01 34.29 -0.01 38.83 -0.01 C46.8 -0.02 54.76 -0.02 62.73 -0.02 C74.57 -0.02 86.41 -0.02 98.26 -0.03 C120.64 -0.04 143.02 -0.04 165.4 -0.04 C182.67 -0.04 199.95 -0.04 217.23 -0.05 C222.2 -0.05 227.16 -0.05 232.13 -0.05 C233.98 -0.05 233.98 -0.05 235.87 -0.05 C270.62 -0.06 305.37 -0.06 340.11 -0.06 C341.43 -0.06 342.74 -0.06 344.09 -0.06 C350.73 -0.06 357.38 -0.06 364.02 -0.06 C366.02 -0.06 368.02 -0.06 370.02 -0.06 C371.36 -0.06 372.69 -0.06 374.02 -0.06 C416.23 -0.06 458.43 -0.07 500.63 -0.08 C547.26 -0.09 593.89 -0.1 640.52 -0.1 C645.48 -0.1 650.45 -0.1 655.42 -0.1 C656.64 -0.1 657.87 -0.1 659.13 -0.1 C678.85 -0.1 698.57 -0.11 718.29 -0.12 C738.1 -0.13 757.9 -0.13 777.71 -0.12 C789.49 -0.12 801.27 -0.12 813.05 -0.13 C820.9 -0.13 828.76 -0.13 836.62 -0.13 C841.1 -0.12 845.59 -0.12 850.07 -0.13 C854.15 -0.14 858.22 -0.13 862.29 -0.13 C863.76 -0.12 865.23 -0.12 866.7 -0.13 C868.69 -0.14 870.68 -0.13 872.67 -0.12 C874.32 -0.12 874.32 -0.12 876.01 -0.12 C879.09 0.14 881.22 0.69 883.96 2.13 C886 5.19 886.21 5.79 886.21 9.24 C886.22 10.08 886.22 10.92 886.23 11.78 C886.23 12.7 886.22 13.63 886.22 14.58 C886.22 15.56 886.23 16.54 886.23 17.55 C886.24 20.85 886.24 24.15 886.23 27.45 C886.24 29.81 886.24 32.17 886.25 34.53 C886.26 40.95 886.26 47.37 886.26 53.79 C886.26 57.8 886.26 61.81 886.27 65.82 C886.27 66.48 886.27 67.15 886.27 67.83 C886.27 69.18 886.27 70.53 886.27 71.88 C886.28 84.55 886.28 97.22 886.27 109.89 C886.27 121.49 886.28 133.09 886.3 144.69 C886.32 156.59 886.33 168.5 886.32 180.4 C886.32 187.08 886.32 193.77 886.34 200.45 C886.35 206.74 886.35 213.02 886.33 219.31 C886.33 221.62 886.33 223.93 886.34 226.24 C886.35 229.38 886.35 232.53 886.33 235.67 C886.34 236.6 886.35 237.52 886.36 238.47 C886.35 239.31 886.34 240.15 886.33 241.02 C886.33 241.74 886.33 242.47 886.33 243.22 C885.85 245.69 884.88 246.56 882.96 248.13 C880.23 249.49 878.07 249.25 875.01 249.25 C873.1 249.26 873.1 249.26 871.14 249.26 C869.71 249.26 868.27 249.26 866.84 249.26 C865.32 249.26 863.81 249.26 862.29 249.26 C858.08 249.27 853.88 249.27 849.68 249.27 C845.12 249.27 840.56 249.27 836 249.28 C826.94 249.28 817.88 249.29 808.82 249.29 C797.97 249.29 787.13 249.29 776.28 249.3 C750.07 249.32 723.85 249.32 697.64 249.33 C685.25 249.33 672.85 249.33 660.46 249.34 C618.06 249.35 575.66 249.36 533.27 249.36 C530.61 249.36 527.94 249.36 525.28 249.36 C522.61 249.36 519.94 249.37 517.27 249.37 C512.59 249.37 507.9 249.37 503.22 249.37 C501.88 249.37 500.53 249.37 499.19 249.37 C456.12 249.37 413.04 249.39 369.96 249.41 C323.78 249.43 277.6 249.45 231.42 249.45 C226.43 249.45 221.44 249.45 216.45 249.45 C215.22 249.45 213.99 249.45 212.73 249.45 C192.91 249.45 173.09 249.46 153.27 249.48 C133.37 249.49 113.47 249.49 93.57 249.49 C81.73 249.48 69.89 249.49 58.06 249.5 C50.16 249.51 42.27 249.51 34.37 249.5 C29.87 249.49 25.36 249.49 20.85 249.51 C16.76 249.52 12.67 249.52 8.57 249.5 C7.1 249.5 5.62 249.5 4.14 249.51 C2.15 249.52 0.15 249.51 -1.85 249.5 C-2.95 249.5 -4.06 249.5 -5.21 249.5 C-8.38 249.08 -9.76 248.34 -12.04 246.13 C-12.54 244.21 -12.54 244.21 -12.54 241.99 C-12.55 241.14 -12.56 240.29 -12.57 239.42 C-12.56 238.49 -12.55 237.56 -12.54 236.6 C-12.55 235.61 -12.55 234.62 -12.56 233.6 C-12.57 230.27 -12.56 226.95 -12.54 223.62 C-12.55 221.24 -12.55 218.86 -12.56 216.48 C-12.57 210.68 -12.57 204.88 -12.55 199.07 C-12.53 192.32 -12.54 185.57 -12.54 178.81 C-12.55 166.77 -12.53 154.72 -12.51 142.67 C-12.48 130.97 -12.48 119.28 -12.49 107.58 C-12.5 94.85 -12.5 82.12 -12.49 69.39 C-12.48 68.04 -12.48 66.68 -12.48 65.32 C-12.48 64.65 -12.48 63.99 -12.48 63.3 C-12.47 58.59 -12.48 53.88 -12.48 49.17 C-12.49 42.83 -12.48 36.5 -12.45 30.16 C-12.45 27.83 -12.45 25.5 -12.45 23.17 C-12.46 20 -12.45 16.83 -12.43 13.65 C-12.44 12.26 -12.44 12.26 -12.45 10.83 C-12.44 9.99 -12.43 9.14 -12.42 8.27 C-12.42 7.53 -12.42 6.8 -12.42 6.05 C-11.93 3.55 -11.03 2.68 -9.04 1.13 C-5.79 0.04 -3.43 0 0 0 Z M-1.04 13.13 C-0.71 87.05 -0.38 160.97 -0.04 237.13 C2.66 238.48 4.75 238.25 7.78 238.25 C9.03 238.25 10.28 238.26 11.57 238.26 C12.97 238.25 14.37 238.25 15.78 238.25 C17.26 238.25 18.74 238.25 20.23 238.25 C24.34 238.26 28.45 238.25 32.57 238.25 C37.03 238.25 41.49 238.25 45.95 238.25 C53.78 238.25 61.61 238.25 69.44 238.25 C81.08 238.24 92.72 238.24 104.36 238.24 C123.94 238.24 143.52 238.24 163.11 238.23 C182.5 238.23 201.9 238.22 221.29 238.22 C222.5 238.22 223.7 238.22 224.94 238.22 C231.06 238.22 237.18 238.22 243.3 238.22 C286.66 238.22 330.02 238.21 373.39 238.2 C415.52 238.19 457.66 238.19 499.79 238.18 C501.09 238.18 502.39 238.18 503.73 238.18 C516.76 238.18 529.8 238.18 542.83 238.18 C569.39 238.17 595.94 238.17 622.5 238.17 C623.72 238.17 624.94 238.17 626.2 238.17 C663.64 238.16 701.08 238.16 738.52 238.15 C739.58 238.15 740.64 238.15 741.74 238.15 C784.81 238.14 827.89 238.14 870.96 238.13 C870.96 163.55 870.96 88.97 870.96 12.13 C804.66 12.11 804.66 12.11 738.36 12.1 C737.25 12.1 736.13 12.1 734.98 12.1 C697.39 12.09 659.8 12.09 622.21 12.08 C620.99 12.08 619.76 12.08 618.5 12.08 C591.85 12.08 565.21 12.08 538.56 12.08 C525.5 12.07 512.43 12.07 499.36 12.07 C498.06 12.07 496.76 12.07 495.42 12.07 C453.24 12.07 411.06 12.06 368.88 12.05 C325.55 12.04 282.22 12.03 238.89 12.03 C232.77 12.03 226.66 12.03 220.55 12.03 C219.34 12.03 218.14 12.03 216.9 12.03 C197.49 12.03 178.09 12.03 158.68 12.02 C139.19 12.01 119.7 12.01 100.22 12.01 C88.62 12.01 77.03 12.01 65.44 12.01 C57.71 12 49.98 12 42.25 12 C37.84 12.01 33.42 12.01 29.01 12 C25 12 21 12 16.99 12 C15.54 12 14.09 12 12.64 12 C10.69 12 8.74 12 6.79 12 C5.7 12 4.61 12 3.5 12 C0.97 11.96 0.97 11.96 -1.04 13.13 Z " fill="#000002" transform="translate(203.0414880514145,514.8735001683235)"/>
<path d="M0 0 C1.1 -0 1.1 -0 2.22 -0.01 C3.78 -0.02 5.33 -0.02 6.89 -0.02 C9.24 -0.02 11.6 -0.04 13.96 -0.06 C15.47 -0.06 16.99 -0.06 18.5 -0.06 C19.54 -0.07 19.54 -0.07 20.61 -0.08 C28.81 -0.05 36.29 1.8 42.65 7.17 C46.61 11.44 49 15.39 49.21 21.29 C48.92 25.84 47.74 29.14 45.65 33.17 C45.26 33.97 44.86 34.78 44.46 35.61 C44.19 36.12 43.92 36.64 43.65 37.17 C44.45 37.72 45.26 38.28 46.09 38.86 C49.73 42.49 49.54 46.97 49.7 51.88 C49.57 60.77 49.57 60.77 47.65 64.17 C44.56 66.95 41.23 69.07 37.65 71.17 C36.66 71.83 35.67 72.49 34.65 73.17 C29.67 74.12 24.75 74.34 19.7 74.37 C18.97 74.38 18.24 74.38 17.48 74.39 C15.94 74.4 14.41 74.4 12.87 74.41 C10.52 74.42 8.18 74.45 5.83 74.48 C4.33 74.49 2.83 74.49 1.33 74.5 C0.63 74.51 -0.06 74.52 -0.78 74.53 C-5.14 74.51 -7.88 73.84 -11.35 71.17 C-12.71 68.45 -12.49 66.28 -12.51 63.24 C-12.53 61.37 -12.53 61.37 -12.54 59.46 C-12.55 58.1 -12.55 56.73 -12.55 55.37 C-12.56 53.97 -12.57 52.57 -12.57 51.17 C-12.58 48.24 -12.59 45.31 -12.59 42.38 C-12.6 38.62 -12.62 34.87 -12.65 31.12 C-12.67 28.23 -12.67 25.34 -12.68 22.45 C-12.68 21.07 -12.69 19.69 -12.7 18.3 C-12.72 16.36 -12.71 14.43 -12.71 12.49 C-12.71 10.83 -12.71 10.83 -12.72 9.15 C-12.3 5.77 -11.36 3.89 -9.35 1.17 C-6.36 -0.33 -3.28 0.01 0 0 Z M11.65 22.17 C11.65 23.49 11.65 24.81 11.65 26.17 C12.93 26.19 14.21 26.21 15.52 26.23 C16.24 26.24 16.96 26.25 17.7 26.27 C19.73 26.29 19.73 26.29 21.65 25.17 C21.65 24.51 21.65 23.85 21.65 23.17 C19.36 22.02 18.06 22.06 15.52 22.11 C13.61 22.14 13.61 22.14 11.65 22.17 Z M10.65 49.17 C10.98 50.16 11.31 51.15 11.65 52.17 C13.61 52.19 15.57 52.21 17.52 52.23 C19.16 52.25 19.16 52.25 20.83 52.27 C23.6 52.37 23.6 52.37 25.65 51.17 C25.32 50.18 24.99 49.19 24.65 48.17 C19.16 47.05 15.81 47.38 10.65 49.17 Z " fill="#000002" transform="translate(919.3515625,599.83203125)"/>
<path d="M0 0 C3.3 4.95 3.12 9.46 3.06 15.31 C3.05 16.57 3.04 17.82 3.04 19.11 C3.02 20.07 3.01 21.02 3 22 C9.43 21.5 9.43 21.5 16 21 C15.95 19.25 15.95 19.25 15.89 17.46 C15.87 15.91 15.84 14.36 15.81 12.81 C15.79 12.04 15.76 11.27 15.74 10.48 C15.68 5.84 15.89 2.71 19 -1 C23.45 -4.1 28.81 -3.48 34 -3 C36.82 -2.32 38.47 -1.54 41 0 C42.27 3.27 42.14 6.61 42.16 10.08 C42.17 11.31 42.18 12.54 42.19 13.8 C42.2 15.14 42.2 16.48 42.2 17.81 C42.21 19.19 42.21 20.56 42.22 21.94 C42.23 24.81 42.24 27.69 42.24 30.57 C42.25 34.26 42.27 37.94 42.3 41.63 C42.32 44.47 42.32 47.3 42.32 50.14 C42.33 51.5 42.33 52.86 42.35 54.22 C42.36 56.12 42.36 58.02 42.36 59.92 C42.36 61.54 42.36 61.54 42.37 63.19 C41.95 66.37 41.23 67.73 39 70 C33.03 71.71 26.33 71.93 20.56 69.62 C18 68 18 68 16 66 C15.68 63.94 15.68 63.94 15.59 61.43 C15.53 60.09 15.53 60.09 15.47 58.71 C15.44 57.78 15.41 56.84 15.38 55.88 C15.32 54.46 15.32 54.46 15.26 53.01 C15.16 50.67 15.08 48.34 15 46 C11.04 46 7.08 46 3 46 C3.02 47.63 3.04 49.26 3.06 50.94 C2.99 64.96 2.99 64.96 -0.38 68.5 C-6.2 71.83 -12.53 71.83 -18.94 70.12 C-22 69 -22 69 -24 67 C-25.53 61.11 -25.16 54.89 -25.17 48.85 C-25.17 47.67 -25.17 46.5 -25.18 45.29 C-25.18 42.81 -25.19 40.34 -25.19 37.86 C-25.19 34.08 -25.21 30.3 -25.22 26.52 C-25.23 24.11 -25.23 21.7 -25.23 19.29 C-25.24 18.16 -25.24 17.03 -25.25 15.87 C-25.21 2.21 -25.21 2.21 -21 -2 C-14.09 -4.16 -6.07 -4.1 0 0 Z " fill="#000002" transform="translate(785,603)"/>
<path d="M0 0 C1.54 -0.04 1.54 -0.04 3.12 -0.08 C6.81 0.33 9.48 1.6 12.12 4.25 C12.27 7.15 12.36 10.02 12.41 12.92 C12.43 14.23 12.43 14.23 12.46 15.57 C12.52 18.38 12.57 21.19 12.62 24 C12.69 27.68 12.77 31.36 12.84 35.05 C12.86 35.89 12.87 36.74 12.88 37.61 C12.97 41.61 13.15 45.35 14.12 49.25 C15.4 49.41 16.68 49.58 18 49.75 C18.72 49.84 19.44 49.94 20.18 50.03 C22.13 50.29 22.13 50.29 24.12 50.25 C26.26 45.91 26.43 41.88 26.47 37.13 C26.48 36.36 26.5 35.58 26.51 34.78 C26.56 32.31 26.59 29.84 26.62 27.38 C26.67 24.13 26.72 20.88 26.78 17.63 C26.79 16.9 26.79 16.16 26.8 15.4 C26.89 10.74 27.46 6.67 29.12 2.25 C32.74 -0.16 35.45 -0.08 39.62 -0.06 C40.3 -0.08 40.98 -0.09 41.68 -0.11 C44.58 -0.11 46.61 -0.11 49.03 1.58 C51.02 4.62 51.25 7.28 51.27 10.81 C51.28 11.73 51.28 12.65 51.29 13.6 C51.29 14.6 51.29 15.59 51.29 16.61 C51.3 18.15 51.3 18.15 51.3 19.72 C51.31 21.89 51.31 24.06 51.31 26.23 C51.31 29.54 51.33 32.85 51.35 36.16 C51.35 38.27 51.35 40.38 51.36 42.49 C51.36 43.48 51.37 44.46 51.38 45.48 C51.36 50.42 51.25 54.68 49.12 59.25 C47.8 59.93 46.47 60.6 45.12 61.25 C45.04 61.99 44.96 62.74 44.88 63.5 C43.66 67.95 40 70 36.12 72.25 C30.54 74.76 25.06 74.55 19.06 74.5 C17.59 74.51 17.59 74.51 16.09 74.52 C15.14 74.52 14.19 74.52 13.21 74.52 C12.36 74.51 11.5 74.51 10.62 74.51 C3.86 73.81 -0.17 69.74 -4.88 65.25 C-5.82 64.36 -6.77 63.48 -7.75 62.56 C-13.58 53.47 -12.22 40.53 -12.19 30.07 C-12.19 27.42 -12.21 24.78 -12.24 22.14 C-12.24 20.44 -12.24 18.74 -12.24 17.04 C-12.25 16.26 -12.26 15.48 -12.27 14.68 C-12.22 9.5 -11.4 5.81 -8.88 1.25 C-5.71 0.2 -3.32 0.05 0 0 Z " fill="#000002" transform="translate(846.875,599.75)"/>
</svg>
